<svg xmlns="http://www.w3.org/2000/svg" xml:space="preserve" width="128" height="128"><rect width="124" height="124" x="2" y="2" fill="#0d1117" stroke="#212532" stroke-width="4" rx="14"/><path fill="#fee9d8" d="M47.938 79.175c-.11-.089-.109-.09.018-.028.073.036.132.077.132.093 0 .045-.03.032-.15-.065m-.73-.383c-.178-.094-.302-.173-.277-.175.063-.004.63.289.63.325 0 .04.007.043-.353-.15m-.645-.296c-.049-.032-.062-.058-.03-.058s.099.026.147.058.062.057.03.057-.099-.026-.147-.057m-.587-.187c-.313-.092-.336-.106-.129-.08.14.018.337.07.44.115.25.11.15.1-.311-.035m-1.086-.05a.7.7 0 0 1 .235-.05c.094.002.089.011-.03.05-.2.064-.354.064-.205 0m.456-.101c.057-.015.136-.014.176.002s-.007.029-.104.027c-.096 0-.129-.014-.072-.03m17.47-.14c-2.496-.277-4.94-1.242-6.896-2.723-.734-.556-1.45-1.2-1.395-1.253.026-.025.215-.116.421-.203l.375-.158.212.203c1.315 1.258 3.454 2.409 5.429 2.92 1.175.305 2.003.407 3.291.407s2.116-.102 3.291-.407c4.616-1.196 8.26-4.883 9.444-9.557.183-.724.324-1.625.41-2.638l.034-.387.363-.147c.2-.08.388-.157.417-.17.032-.013.039.28.017.726a14.15 14.15 0 0 1-4.087 9.297 14 14 0 0 1-7.806 4.003c-.732.116-2.797.167-3.52.086M48.16 72.042c-.153-.052-.076-.406.163-.742.143-.202.234-.398.234-.502 0-.166.035-.184 1.38-.754.758-.321 1.378-.61 1.378-.642s-.094-.312-.209-.622c-.268-.724-.576-1.942-.71-2.807-.148-.954-.148-3.136 0-4.09.476-3.075 1.833-5.796 3.969-7.955s4.825-3.532 7.866-4.013c.943-.15 3.1-.15 4.044 0 1.823.288 3.62.937 5.152 1.859 2.305 1.387 4.392 3.711 5.473 6.094l.25.552 1.889-.814.44.069q.645.101.645.322c0 .11-.356.406-.774.642-.446.252-4.56 2.28-8.35 4.115-3.193 1.546-2.968 1.442-4.87 2.27-.807.351-1.651.73-1.877.84l-.411.2.25.018c.136.01.249.045.249.077 0 .106-.898.641-2.025 1.206-1.255.63-2.137.98-2.587 1.026-.273.029-.308.02-.344-.094-.022-.07-.076-.126-.12-.126-.202 0-1.225.38-3.309 1.228-2.854 1.162-3.25 1.308-5.414 2-1.754.56-2.24.691-2.382.643zm3.404-1.56c.121-.035.22-.074.22-.088 0-.06-.26-.562-.292-.562-.02 0-.15.118-.29.262-.383.395-.234.555.362.387m2.619-.857c1.77-.601 2.849-1.032 5.23-2.09 1.6-.711 2.448-1.08 5.75-2.495.5-.214 1.463-.656 2.141-.98.678-.326 2.024-.964 2.992-1.419 2.871-1.349 4.475-2.228 5.114-2.802.36-.323.44-.473.366-.674-.045-.122-.02-.149.272-.28l.322-.143-.15-.344c-.082-.19-.258-.545-.39-.79-2.017-3.736-5.587-6.246-9.76-6.86-.95-.14-2.683-.14-3.633 0-5.85.861-10.365 5.427-11.216 11.343-.069.478-.102 1.077-.102 1.837 0 1.302.101 2.14.402 3.328.27 1.06.985 2.872 1.135 2.872.026 0 .713-.226 1.527-.503zm32.283-7.185q.006-.106.035-.036c.017.043.015.094-.004.114-.02.02-.034-.016-.031-.078m.116-.363c-.002-.039.066-.266.15-.504.346-.973.7-1.485 1.207-1.745.382-.196.358-.136-.037.093-.5.289-.76.68-1.125 1.693-.106.294-.194.502-.195.463m-45.458-6.427c.079-.266.895-2.064 1.333-2.937.476-.95 1.44-2.64 1.506-2.64.016 0-.03.1-.105.222s-.725 1.398-1.447 2.834-1.302 2.57-1.287 2.521m32.282-14.568c-1.324-.41-3.035-.913-3.834-1.126-.968-.26-.8-.262.284-.005 1.163.275 2.195.573 3.345.964 1.444.492 1.56.587.205.167"/><path fill="#0c1016" d="M63.373 77.217c-2.386-.2-4.532-.948-6.454-2.249-.638-.431-1.5-1.13-1.536-1.244-.013-.042 21.387-9.245 21.988-9.455.136-.048-.12 1.947-.385 2.992-1.313 5.178-5.655 9.104-10.884 9.842-.68.096-2.19.159-2.729.113zm-10.935-7.425c-.315-.635-.718-1.745-.917-2.53-.301-1.19-.402-2.026-.402-3.33 0-.759.033-1.358.102-1.836.851-5.916 5.366-10.481 11.216-11.342.95-.14 2.682-.14 3.632 0 4.174.614 7.744 3.123 9.76 6.86.133.244.308.6.391.789l.15.344-.322.144c-.292.13-.318.157-.272.279.075.2-.007.351-.366.674-.639.575-2.243 1.453-5.114 2.802-.968.455-2.314 1.094-2.992 1.419a69 69 0 0 1-2.142.98c-3.3 1.416-4.15 1.784-5.75 2.495-2.38 1.058-3.459 1.489-5.23 2.09-.813.277-1.501.504-1.527.504s-.124-.154-.217-.341z"/><path fill="#fec9a7" d="M7.942 88.936c-.9-.134-1.182-.579-.827-1.304.176-.358 1.035-1.26 1.926-2.02 2.391-2.04 6.886-4.81 14.286-8.805 2.246-1.212 2.769-1.564 5.164-3.473.597-.476 1.613-1.264 2.259-1.752 3.829-2.894 5.717-4.403 6.023-4.813.582-.777 1.032-1.79 1.804-4.056 1.924-5.648 2.074-6.026 3.648-9.197.737-1.484 1.536-3.039 1.776-3.454.999-1.728 2.838-3.979 4.45-5.445 1.23-1.12 1.34-1.14.258-.047-1.9 1.92-3.214 3.671-4.64 6.187-.68 1.2-1.083 2.006-1.519 3.044a36 36 0 0 1-.773 1.68c-.92 1.858-1.599 3.605-2.806 7.218-1.075 3.217-1.478 4.193-2.066 5.001-.295.405-.359.452-3.31 2.448-2.528 1.71-3.348 2.288-4.899 3.452-2.156 1.62-2.964 2.145-5.017 3.265-5.298 2.89-7.346 4.1-10.356 6.116-1.694 1.134-2.275 1.603-3.417 2.752-.957.963-1.143 1.223-1.177 1.646-.064.772.44.962 2.24.848 1.372-.087 2.332-.264 4.618-.851 1.079-.277 2.33-.589 2.782-.692a39 39 0 0 0 2.054-.563 71 71 0 0 1 2.259-.641 48 48 0 0 0 2.054-.595c.564-.18 1.753-.544 2.64-.808 4.161-1.24 13.648-4.635 20.883-7.475.755-.296 1.381-.53 1.391-.52.023.022-3.505 1.522-4.026 1.711l-.381.14.327.041c.727.093 1.662.563 4.254 2.139 3.993 2.428 6.306 3.564 9.413 4.625.661.225 1.11.393.997.371-.398-.075-2.386-.756-3.402-1.166-1.98-.797-3.749-1.723-6.778-3.547-2.763-1.663-3.523-2.051-4.292-2.192-.401-.073-.6-.042-1.306.202-.24.083-.444.142-.455.131s.259-.134.598-.275c1.158-.479.585-.294-1.206.389-6.29 2.398-12.47 4.572-17.865 6.282-4.55 1.443-6.7 2.06-9.828 2.822-3.38.824-4.65 1.07-6.099 1.184-.888.07-1.176.069-1.658-.003zm52.574-3.774c.043-.017.093-.015.113.005s-.016.033-.077.03q-.105-.005-.036-.035m-7.632-7.586c-.12-.083-.22-.164-.22-.18s.106.043.235.13c.205.137.275.2.22.2-.01 0-.115-.068-.235-.15m-1.469-1.069c-.539-.409-.98-.76-.98-.778 0-.042-.002-.043 1.064.773.875.669.974.75.925.75-.016 0-.47-.335-1.009-.745m-11.19-.735c-.05-.035-.424-.062-.87-.062-.598-.001-.776-.019-.759-.076.013-.04.286-.273.606-.517s.69-.555.822-.69c.21-.219.47-.348 2.193-1.083a93 93 0 0 0 1.98-.86c.012-.013.062-.594.11-1.292.221-3.27.539-5.7.97-7.428.333-1.33 1.227-3.87 1.915-5.44.331-.755 1.161-2.374 1.217-2.374.012 0-.146.34-.35.756-1.573 3.21-2.654 7.345-3.106 11.882-.109 1.097-.28 3.627-.249 3.66.013.012.87-.339 1.905-.78s1.897-.803 1.916-.803c.11 0-.002.355-.202.637-.238.337-.316.69-.162.742.142.048.628-.083 2.381-.643 2.165-.692 2.56-.838 5.415-2 2.084-.848 3.106-1.228 3.308-1.228.045 0 .099.057.12.126.036.114.072.123.345.095.45-.047 1.332-.397 2.587-1.027 1.126-.564 2.024-1.1 2.024-1.206 0-.032-.112-.066-.249-.076l-.25-.018.411-.201c.226-.11 1.071-.488 1.878-.84 1.901-.828 1.677-.723 4.87-2.27 3.79-1.835 7.904-3.863 8.35-4.115.418-.236.774-.531.774-.641 0-.14-.207-.258-.528-.3a2 2 0 0 1-.397-.083c-.04-.023.929-.468 2.2-1.01 1.252-.532 2.294-.985 2.317-1.007.045-.041-1.281-1.222-2.448-2.179-3.579-2.935-7.196-5.081-10.561-6.266-.958-.337-.745-.321.322.025 1.814.586 3.695 1.439 5.721 2.592 2.176 1.239 4.006 2.573 6.5 4.74.664.577 1.019.847 1.086.828.056-.016 2.675-1.13 5.822-2.478 3.508-1.502 5.834-2.466 6.014-2.493.161-.025.372-.063.47-.085.133-.03.098.005-.148.15-1.192.698-3.403 2.394-3.403 2.61 0 .03.086.076.191.104l.19.05-.469.28c-.258.155-2.001 1.054-3.874 1.999-1.872.945-3.786 1.934-4.254 2.198-1.198.677-1.61.882-3.789 1.885-1.061.489-2.352 1.094-2.869 1.344s-1.608.762-2.426 1.135c-2.38 1.087-3.773 1.822-5.8 3.055-1.608.98-2.753 1.514-3.538 1.652-.847.149-1.056.204-1.731.463a85 85 0 0 0-2.406 1.007c-2.882 1.251-4.013 1.693-6.483 2.538-4.513 1.543-5.59 1.938-8.156 2.994-3.395 1.397-4.42 1.737-5.809 1.93-.962.134-1.54.167-1.643.094zm42.21-.76c1.332-2.69 2.269-5.495 3.176-9.51.76-3.363.988-4.197 1.35-4.924.241-.485.301-.538.903-.799.576-.249.692-.25.177 0-.927.448-1.24 1.176-2.105 4.893-.933 4.004-1.549 6.062-2.475 8.263-.351.835-1.318 2.833-1.371 2.833-.017 0 .139-.34.345-.756zm-.663-10.078q.006-.105.036-.036c.017.043.015.094-.005.114s-.033-.015-.03-.078m.059-.356q.006-.105.035-.036c.017.043.015.094-.004.114-.02.02-.034-.015-.031-.078m.059-.356q.005-.105.035-.036c.017.043.015.094-.005.114s-.033-.015-.03-.078m.063-.44c0-.082.013-.115.03-.074s.016.107 0 .148-.03.008-.03-.074m.059-.415c0-.082.013-.115.03-.074s.015.107 0 .148-.03.007-.03-.074m.06-.505c.002-.098.015-.13.03-.073a.34.34 0 0 1-.003.178c-.016.04-.028-.007-.027-.105m.057-.504c0-.082.013-.115.03-.074s.016.107 0 .148-.03.008-.03-.074m.93-.547c.016-.017 1.31-.64 2.875-1.382 6.991-3.319 12.424-6.034 17.778-8.885 6.908-3.68 13.154-7.59 15.181-9.506.607-.573.7-.707.839-1.204.107-.385.108-.406.007-.55-.288-.406-.853-.45-2.39-.183-1.238.216-1.512.28-2.9.687-1.2.351-1.375.38-1.43.234-.032-.083-.157-.09-1.048-.056-1.119.042-1.815.152-3.22.508-1.298.33-5.233 1.47-6.67 1.934-.668.216-1.479.469-1.801.563-.703.205-2.932.685-4.533.977-.638.116-1.687.314-2.333.44-1.353.264-2.266.394-3.139.446-.755.044-2.178.27-3.194.505-1.136.263-1.574.234-2.85-.19-.775-.258-1.769-.688-3.768-1.628-2.973-1.397-3.904-1.784-7.145-2.97-3.385-1.24-5.317-1.734-7.95-2.037a60 60 0 0 0-3.99-.291l-1.115-.036.646-.06c.89-.08 3.488-.068 4.341.022 1.865.197 3.319.501 5.604 1.173l1.995.587c2.392.705 3.74 1.263 7.804 3.232 2.87 1.39 4.064 1.836 4.935 1.84.148 0 1.055-.133 2.015-.296 1.752-.297 3.445-.53 4.755-.654 1.019-.097 4.406-.565 5.604-.775 1.514-.266 2.062-.41 4.166-1.092 2.717-.882 6.058-1.886 7.98-2.4 2.012-.536 5.27-1.175 6.395-1.253.403-.028 1.143-.12 1.643-.204 1.135-.192 2.19-.252 2.668-.15.262.055.4.124.549.275.23.233.226.297-.055.911-.672 1.467-5.495 4.784-13.313 9.155-5.654 3.162-18.637 9.644-23.382 11.674-1.594.682-1.595.683-1.555.64zM49.906 43.407c0-.012.046-.059.103-.104.093-.073.095-.071.022.023-.077.099-.125.13-.125.081m9.96-4.17c.04-.017.107-.017.147 0s.007.03-.073.03-.114-.014-.074-.03"/><path fill="#dd5fb4" d="M9.494 88.23c-.568-.084-.806-.348-.765-.849.034-.423.22-.683 1.177-1.646 1.142-1.15 1.723-1.618 3.417-2.752 3.01-2.017 5.057-3.226 10.356-6.116 2.053-1.12 2.861-1.646 5.017-3.265 1.551-1.164 2.37-1.742 4.9-3.452 2.95-1.996 3.014-2.043 3.308-2.448.589-.808.992-1.784 2.067-5.001 1.207-3.613 1.886-5.36 2.806-7.218.243-.49.591-1.247.773-1.68 1.905-4.536 5.422-9.17 8.527-11.235a21.1 21.1 0 0 1 7.72-3.146c.797-.151 1.006-.167 2.229-.17 1.242-.004 2.98.102 4.371.266 2.646.311 4.547.8 7.921 2.034 3.241 1.186 4.172 1.573 7.145 2.97 2 .94 2.993 1.37 3.769 1.628 1.274.425 1.713.454 2.849.19 1.016-.235 2.439-.46 3.194-.505.873-.052 1.786-.181 3.14-.446.645-.125 1.694-.324 2.332-.44 1.6-.292 3.83-.772 4.533-.977a89 89 0 0 0 1.8-.563c1.438-.464 5.373-1.604 6.672-1.933 1.404-.356 2.1-.466 3.219-.508.89-.034 1.016-.027 1.047.055.056.146.231.118 1.43-.233 1.39-.407 1.663-.472 2.902-.687 1.536-.267 2.101-.224 2.389.183.1.143.1.164-.007.55-.139.496-.232.63-.839 1.204-2.027 1.916-8.273 5.826-15.181 9.505-3.772 2.009-9.984 5.157-13.671 6.929-1.742.837-6.95 3.307-7.372 3.497l-.36.162-.04.395c-.434 4.381-1.757 8.495-3.696 11.491-.412.637-1.27 1.761-1.474 1.932-.057.047.089-.154.323-.448 2.37-2.974 4.018-7.327 4.636-12.247.067-.536.109-.987.092-1.004-.016-.016-.102.004-.191.046-.27.126-4.732 2.03-4.827 2.06-.27.084.475-.269 2.758-1.303 1.404-.636 3.041-1.389 3.638-1.673l2.846-1.35c.968-.458 2.895-1.392 4.283-2.077l4.665-2.303c4.84-2.388 9.777-5.085 15.226-8.318 3.16-1.875 6.014-3.854 7.291-5.057l.332-.312.012-.517c.012-.515.012-.517-.163-.624-.384-.236-1.036-.204-2.33.116-2.32.573-5.408 1.996-6.492 2.992l-.235.216.485-.038c.588-.047.59-.02.026.487-.885.798-1.505 1.227-3.15 2.179-.55.317-1.125.67-1.28.785-.247.182-.28.232-.264.394.015.161-.02.214-.258.397-.263.202-1.381.855-2.657 1.553-.43.235-.715.447-1.07.795-.268.261-.486.508-.486.55 0 .046.086.073.235.073.129 0 .234.028.234.063 0 .105-1.395.753-2.11.978-1.575.497-2.013.65-2.848.989-.484.197-1.5.659-2.259 1.026s-1.84.875-2.405 1.128c-1.255.563-2.67 1.277-4.87 2.458-2.22 1.191-2.869 1.51-7.481 3.683-2.163 1.018-4.618 2.207-5.457 2.641-1.907.988-6.162 3.06-7.234 3.524-.858.37-2.51.991-3.093 1.16-.402.118-4.574 1.588-5.81 2.048-.45.168-1.639.649-2.64 1.068-1.87.785-2.886 1.17-5.377 2.043-1.444.505-3.02 1.116-5.43 2.104-.716.294-2.142.832-3.169 1.197-1.026.364-2.67.964-3.655 1.333-1.793.673-2.362.843-2.581.772-.167-.053-.148-.164.092-.53.129-.196.203-.373.19-.458-.017-.13-.045-.139-.37-.134-.288.004-.772.148-2.642.783-1.26.428-2.408.797-2.553.82l-.263.041.118-.135c.064-.074.335-.28.601-.457.456-.305.58-.434.41-.434-.285 0-2.495.717-4.224 1.37a56 56 0 0 0-5.823 2.546c-1.55.771-2.9 1.348-3.574 1.527-.345.091-.379.092-.468.001-.053-.053-.215-.115-.36-.137-.146-.022-.279-.064-.296-.092-.018-.03-.216-.053-.44-.053-.23 0-.407-.026-.407-.059 0-.124.612-.497 2.054-1.251.822-.431 2.09-1.1 2.816-1.485 1.542-.819 2.718-1.378 4.665-2.219 1.7-.734 2.426-.98 3.032-1.022.415-.03.472-.02.725.13.25.148.308.16.65.122.44-.047.468 0 .209.36-.164.229-.423.456-.83.726-.114.076-.168.125-.12.11s2.848-1.21 6.22-2.652c7.211-3.084 6.414-2.755 6.342-2.618-.052.097-.246.259-1.242 1.033-.159.123-.288.249-.288.279 0 .048.786.098 2.083.133.486.013 1.698-.15 2.317-.31 1.07-.278 2.108-.659 4.694-1.723 2.567-1.056 3.643-1.451 8.156-2.994 2.471-.844 3.601-1.287 6.484-2.537.936-.406 2.018-.86 2.406-1.008.675-.258.883-.314 1.73-.463.786-.138 1.93-.673 3.539-1.651 2.026-1.234 3.42-1.968 5.8-3.055.818-.374 1.91-.885 2.426-1.136s1.807-.855 2.869-1.344c2.179-1.003 2.59-1.208 3.789-1.885.467-.264 2.381-1.253 4.254-2.198s3.616-1.844 3.874-1.998l.47-.28-.191-.05c-.105-.028-.191-.075-.191-.105 0-.216 2.205-1.908 3.403-2.61.178-.105.257-.174.176-.154-.08.02-.277.053-.437.074-.187.024-1.83.695-4.635 1.894l-4.345 1.856-.264-.154c-.456-.265-1.913-1.264-3.286-2.25a124 124 0 0 0-4.526-3.127c-1.175-.775-1.625-1.109-1.496-1.109.082 0 .85.411 1.973 1.055.26.149.263.149.147.014-.16-.186-.109-.164 1.033.445 1.073.573 1.89 1.056 3.513 2.075 1.607 1.009 2.856 1.633 3.27 1.633h.155l-.285-.31.323.045c.178.025.531.044.786.042.439-.004.497-.02 1.144-.339 1.385-.681 3.862-2.004 4.258-2.274.398-.272.49-.417.243-.38-.068.011-.757.23-1.532.485s-1.672.54-1.994.63-.838.269-1.145.398c-.85.357-1.08.41-1.579.368-1.103-.093-2.347-.702-6.078-2.974a652 652 0 0 0-3.653-2.212 24 24 0 0 1-1.012-.621c0-.01.15.003.334.028.433.06 1.648.67 3.95 1.986 3.577 2.045 5.248 2.735 6.33 2.615.181-.02.627-.144.992-.275.364-.13.982-.32 1.373-.42 1.445-.368 2.653-.827 5.856-2.223 2.188-.955 3.423-1.437 5.485-2.144 2.938-1.008 6.024-2.215 6.92-2.707 1.101-.603-.15-.413-4.161.633a95 95 0 0 0-3.08.865c-.76.232-1.829.53-2.377.662s-1.513.375-2.142.537c-.63.162-1.91.48-2.845.707a66 66 0 0 0-2.993.804c-.71.217-1.634.454-2.054.527s-1.058.196-1.42.273l-.657.138-.184-.137c-.112-.084-.484-.213-.956-.332-1.273-.32-2.107-.667-5.32-2.212-2.649-1.274-2.957-1.406-5.837-2.506-1.884-.72-2.756-1.017-4.157-1.421-.575-.166-1.091-.327-1.148-.357-.333-.18-2.638-.634-4.084-.804-2.316-.272-6.223.068-8.508.741-1.151.34-2.631.922-3.562 1.404-1.634.844-3.663 2.459-5.204 4.14-.639.697-1.136 1.352-1.062 1.398.029.018-.177.358-.458.756-.547.775-1.11 1.665-1.416 2.241l-.19.356.218-.237c.187-.205.211-.217.174-.09-.04.14-.03.137.18-.059.21-.195.217-.198.12-.04-.747 1.213-1.606 2.804-1.546 2.865.013.013.228-.297.479-.689.25-.391.467-.712.482-.712.016 0-.12.274-.3.609-.833 1.54-2.026 4.093-2.026 4.332 0 .04.172-.284.383-.721.21-.438.395-.782.41-.767.016.016-.09.346-.235.733-.146.388-.263.72-.262.737s.162-.275.355-.65c.42-.815.414-.788-.11.474-.224.539-.612 1.534-.863 2.212s-.466 1.225-.476 1.214c-.01-.01.06-.283.155-.606.126-.423.156-.599.107-.63-.051-.031-.05-.11.002-.322.039-.154.061-.289.05-.3-.026-.027-.71 1.479-1.04 2.29-.152.375-.521 1.39-.82 2.254-.72 2.078-.983 2.748-1.532 3.902-.755 1.591-1.161 2.106-2.05 2.598-.274.152-.833.499-1.242.77-.41.272-1.278.793-1.93 1.158-1.567.876-1.906 1.087-3.936 2.448-2.753 1.845-3.09 2.049-7.414 4.467-3.374 1.887-4.613 2.624-6.597 3.924-2.3 1.507-2.726 1.853-3.277 2.664-.13.192-.48.59-.776.884-.696.691-.901.986-.863 1.236.03.193.153.546.236.678.035.055.336.074 1.173.074 1.832-.001 2.84-.19 5.669-1.066 1.642-.508 2.024-.613 3.137-.863a26 26 0 0 0 1.848-.534c1.38-.451 1.462-.473 2.288-.624a17 17 0 0 0 1.604-.417c.526-.164 1.563-.46 2.305-.655 1.94-.514 5.897-1.849 10.004-3.375 6.807-2.53 8.793-3.274 9.828-3.68a678 678 0 0 0 9.587-3.913c1.174-.494 2.145-.888 2.156-.876.02.02-7.436 3.22-9.092 3.903l-.812.334.812.623a27 27 0 0 0 4.573 2.884c2.556 1.293 5 2.037 7.71 2.347.112.013-.042.013-.342 0-1.313-.059-4.03-.679-5.409-1.235-1.482-.598-3.365-1.592-4.753-2.51-1.175-.778-2.727-1.984-2.652-2.06.023-.023-.104.016-.281.088-3.827 1.533-12.577 4.793-16.547 6.166-3.088 1.068-4.399 1.499-6.16 2.024-.888.264-2.076.627-2.641.808-.565.18-1.489.447-2.054.594s-1.58.436-2.259.642c-.677.205-1.601.459-2.053.562s-1.704.415-2.782.692c-2.271.584-3.243.764-4.584.85-1.058.068-1.064.068-1.51.002zm55.434-2.348c-2.467-.218-3.528-.427-5.557-1.098-3.008-.994-5.54-2.232-9.548-4.67-2.52-1.532-3.74-2.143-4.298-2.151l-.165-.002.168-.093c.155-.085.194-.082.528.039.622.225 1.813.885 4.086 2.265 1.21.735 2.603 1.555 3.096 1.823 3.024 1.64 6.103 2.76 9.296 3.381 1.568.305 2.426.384 4.213.388.887.003 1.468.022 1.29.044-.399.05-2.749.105-3.11.073zm3.535-.184a.5.5 0 0 1 .205 0c.057.015.01.027-.102.027s-.16-.012-.103-.027m.44-.058c.04-.017.106-.017.147 0s.007.03-.074.03-.113-.014-.073-.03m7.466-3.187c0-.013.047-.06.103-.104.093-.074.095-.072.022.022-.076.099-.125.13-.125.082m.555-.453c2.427-2.194 3.81-4 5.367-7.01 1.396-2.699 2.27-5.351 3.35-10.168.768-3.427 1.114-4.558 1.443-4.71.202-.092.232-.083.127.037-.157.18-.436.796-.624 1.38-.194.6-.447 1.63-.976 3.976-.923 4.085-1.837 6.803-3.242 9.642-1.297 2.62-2.97 4.8-5.011 6.529-.65.55-.845.696-.434.324m-22.735-.986a70 70 0 0 0-1.935-.938c-.306-.137-.887-.45-1.29-.696a276 276 0 0 1-3.619-2.265c-.009-.009.219-.117.505-.24l.522-.223.547.466c1.53 1.3 3.29 2.518 5.519 3.817.622.363 1.156.685 1.187.714.141.138-.151.008-1.436-.635m22.357-4.495c0-.012.046-.06.103-.104.093-.074.095-.072.022.023-.077.098-.125.13-.125.08m-35.058-4.65c.012-.877.055-1.384.2-2.389.426-2.929 1.015-6.114 1.449-7.832.362-1.434.997-3.407 1.197-3.723.082-.129.094-.17-.316 1.094-.486 1.497-1.072 3.729-1.02 3.886.01.03.092-.175.183-.457.09-.282.177-.5.192-.486s-.079.585-.208 1.266c-.323 1.695-.476 2.642-.857 5.297-.18 1.254-.39 2.629-.469 3.056-.133.725-.3 1.4-.347 1.4-.011 0-.013-.5-.004-1.113m2.173.326c.21-3.94.385-5.66.798-7.818.492-2.571 1.415-5.558 1.824-5.906.095-.08.364-.5.599-.932.837-1.542 2.15-3.529 3.167-4.79 1.159-1.44 3.608-3.452 5.447-4.479.58-.323.484-.217-.123.138-1.546.902-3.122 2.278-4.513 3.938-1.266 1.513-2.799 4.008-3.652 5.947-.697 1.584-1.593 4.125-1.93 5.473-.416 1.665-.762 4.26-.944 7.08-.09 1.386-.12 1.648-.196 1.68l-.287.124-.219.094zm16.808-.757c.048-.031.114-.057.147-.057s.019.026-.03.057-.114.058-.146.058-.02-.026.029-.058m.41-.178c.05-.031.115-.057.147-.057s.02.026-.029.057-.114.058-.147.058-.019-.026.03-.058m.294-.118c.048-.032.114-.058.147-.058s.019.026-.03.058-.114.057-.146.057-.02-.026.029-.057m22.621-4.866c.14-1.073.22-1.858.32-3.174.064-.849.117-1.597.118-1.662 0-.112.14-.185 1.056-.551.051-.02-.628 3.433-.89 4.527-.101.424-.196.738-.21.697s-.049-.06-.078-.041-.056-.015-.058-.074c-.002-.06-.067.026-.144.19-.135.283-.14.287-.114.088m-7.483-1.602c.049-.032.115-.058.147-.058s.019.026-.03.058-.114.058-.146.058-.02-.026.03-.058m.47-.208c.08-.046.173-.084.205-.084s-.007.038-.088.084-.173.085-.205.085.007-.038.088-.085m6.718-9.738c-2.364-2.096-4.558-3.707-6.748-4.954-2.637-1.501-4.844-2.422-7.187-2.998-2.633-.647-3.452-.76-5.545-.759-1.797 0-2.583.093-4.015.47-.433.114-.797.198-.808.186-.063-.064 1.9-.57 2.798-.721a9 9 0 0 0 .88-.192c.36-.108 1.75-.137 3.022-.062.664.039.69.036.44-.044l-.264-.085.44.03c1.505.104 5.422 1.228 7.423 2.132 3.191 1.44 5.953 3.302 10.075 6.796l.736.623-.184.101a.8.8 0 0 1-.271.102c-.049 0-.405-.282-.793-.625zm-4.43-8.764c-.599-.275-2.692-1.38-2.784-1.47-.194-.188.747.163 1.64.613.664.334 1.627.931 1.703 1.056.049.08.057.083-.56-.2"/><path fill="#7d56c1" d="M62.816 78.878c-2.496-.3-4.751-1.106-6.66-2.38-1.123-.75-2.565-1.985-2.45-2.101.026-.027.205-.113.396-.192l.349-.143.471.42q2.584 2.307 5.863 3.157c1.295.335 1.947.413 3.468.413s2.173-.078 3.468-.413c5.94-1.54 10.197-6.806 10.507-13 .042-.825.004-.757.547-.974l.31-.124-.033 1.056c-.097 3.097-1.247 6.218-3.212 8.71-1.959 2.486-4.865 4.38-7.923 5.163-1.276.327-1.865.399-3.43.416-.806.01-1.559.005-1.672-.008zm-11.833-8.423c-.023-.06.053-.185.219-.356.14-.144.27-.262.29-.262.031 0 .293.502.293.562 0 .043-.43.149-.604.15-.094 0-.178-.04-.198-.094m-.663-1.371a17.4 17.4 0 0 1-.72-2.748c-.114-.649-.13-.947-.132-2.374-.001-1.773.047-2.23.38-3.609a15.2 15.2 0 0 1 4.086-7.193c2.21-2.162 4.939-3.534 8.1-4.072.912-.155 3.526-.155 4.439 0 4.27.728 7.806 3.014 10.133 6.553.47.714 1.155 1.975 1.257 2.314.036.12.001.152-.33.303l-.371.168-.298-.63a14.08 14.08 0 0 0-9.143-7.57c-1.295-.336-1.947-.413-3.468-.413s-2.173.077-3.468.413a13.8 13.8 0 0 0-6.42 3.706c-2.136 2.16-3.493 4.88-3.969 7.955-.147.954-.147 3.136 0 4.09.134.866.442 2.084.71 2.808.115.31.21.59.21.621 0 .05-.135.118-.683.35-.04.017-.163-.249-.313-.673z"/><path fill="#7c55c0" d="M10.731 87.446a2.4 2.4 0 0 1-.236-.677c-.039-.25.167-.545.863-1.236.296-.294.645-.692.776-.885.55-.81.976-1.156 3.277-2.664 1.984-1.3 3.223-2.037 6.596-3.923 4.324-2.419 4.662-2.622 7.415-4.468 2.03-1.36 2.369-1.571 3.935-2.447a37 37 0 0 0 1.93-1.158c.41-.271.968-.618 1.243-.77.888-.493 1.295-1.007 2.05-2.598.548-1.154.811-1.824 1.53-3.902.3-.865.67-1.88.822-2.255.329-.81 1.013-2.316 1.04-2.289.011.011-.012.146-.05.3-.053.211-.053.29-.002.323.048.03.018.206-.107.629-.096.322-.166.595-.155.606.01.01.224-.536.475-1.214s.64-1.673.864-2.212c.524-1.262.53-1.29.11-.475-.193.376-.353.668-.355.65s.116-.349.261-.736.252-.717.236-.733c-.015-.016-.2.33-.41.766-.21.437-.383.762-.383.722 0-.239 1.193-2.791 2.025-4.333.181-.334.316-.608.301-.608s-.232.32-.483.712c-.25.392-.465.701-.478.689-.06-.061.799-1.652 1.546-2.865.097-.158.09-.156-.12.04s-.22.2-.18.06c.037-.129.013-.116-.174.088l-.218.238.19-.356c.306-.576.869-1.466 1.416-2.241.28-.398.487-.738.458-.756-.131-.082 1.13-1.543 2.2-2.552 1.737-1.635 3.547-2.849 5.31-3.56 2.36-.952 3.635-1.256 6.59-1.57 1.12-.119 3.233-.12 4.236-.001 1.447.17 3.751.623 4.085.804.056.03.572.19 1.147.356 1.401.404 2.273.702 4.157 1.422 2.88 1.1 3.188 1.232 5.837 2.506 3.213 1.545 4.047 1.892 5.32 2.212.473.119.844.248.956.332l.184.137.657-.139c.362-.076 1.001-.199 1.42-.272s1.344-.31 2.054-.527a66 66 0 0 1 2.993-.805 241 241 0 0 0 2.845-.706c.63-.163 1.593-.404 2.142-.537s1.618-.43 2.376-.662c2.411-.737 6.445-1.75 7.24-1.82.507-.045.508.045.003.322-.896.492-3.983 1.699-6.92 2.706-2.063.708-3.297 1.19-5.486 2.144-3.203 1.397-4.41 1.856-5.855 2.225-.391.1-1.01.288-1.374.419-.364.13-.81.254-.992.274-1.082.12-2.752-.57-6.33-2.615-2.302-1.315-3.516-1.926-3.95-1.985-.183-.026-.333-.038-.333-.028s.455.289 1.012.62c.557.332 2.2 1.328 3.652 2.212 3.731 2.273 4.975 2.882 6.079 2.975.498.042.728-.012 1.579-.369.306-.128.821-.307 1.144-.397s1.22-.374 1.995-.63 1.463-.474 1.531-.485c.248-.037.155.107-.243.38-.395.27-2.872 1.593-4.258 2.274-.647.318-.705.335-1.144.338a7 7 0 0 1-.786-.041l-.322-.045.284.31h-.155c-.414 0-1.663-.624-3.27-1.634-1.622-1.019-2.44-1.502-3.512-2.074-1.142-.61-1.194-.631-1.034-.445.116.135.114.134-.146-.015-1.113-.638-1.892-1.054-1.971-1.054-.125 0 .252.286 1.237.938a121 121 0 0 1 4.078 2.793c2.239 1.604 2.786 1.986 3.507 2.446.396.253.7.473.675.488s-.56.247-1.19.515-1.16.497-1.18.51c-.021.012-.404-.289-.852-.669-4.04-3.432-6.839-5.319-10.025-6.756-.849-.384-2.733-1.04-4.254-1.482-.92-.268-2.589-.61-3.168-.65l-.44-.03.264.085c.248.08.223.082-.44.044-1.274-.075-2.663-.046-3.022.063a9 9 0 0 1-.909.196c-2.47.414-5.417 1.572-7.484 2.939C52.776 50.027 51 51.57 50.05 52.75c-1.016 1.262-2.33 3.248-3.167 4.79-.234.433-.503.852-.598.932-.392.334-1.27 3.123-1.774 5.64-.373 1.863-.602 3.803-.735 6.23-.05.914-.11 1.83-.133 2.037l-.041.375-.449.196-.448.196.023-.215c.094-.87.264-2.17.288-2.194.015-.016.032.45.038 1.034s.019.97.031.856.102-1.022.198-2.018c.226-2.33.455-3.945.817-5.755.995-4.982 2.156-8.161 4.022-11.007.525-.801.993-1.413.847-1.108-.125.261-.022.184.356-.265.466-.553.834-.896.864-.805.012.038.431-.318.93-.79 1.698-1.604 3.243-2.712 5.127-3.676 2.845-1.456 4.984-2.005 7.833-2.012 2.194-.006 4.25.332 6.994 1.149 1.532.456 2.547.862 4.154 1.661 1.577.784 2.535 1.347 4.254 2.502 1.036.695 1.251.82.998.583-.367-.343-.264-.307.461.164.705.458.45.203-.663-.662-.967-.752-1.102-.874-1.168-1.064-.053-.15.374.097 1.514.875.484.33.96.65 1.057.71l.178.11-.147-.128c-.416-.364-2.121-1.625-3.037-2.246a42 42 0 0 0-3.446-2.12c-.517-.287-1.014-.585-1.106-.662-.196-.164-1.058-.585-2.107-1.028-.412-.174-.736-.329-.721-.344.024-.024.394.053.704.147.084.025.06-.02-.084-.166-.183-.184-.19-.202-.077-.219.411-.061 4.214 1.436 6.286 2.474.528.265.999.482 1.047.482s.3.094.559.21.482.199.495.186c.036-.037-.86-.624-1.799-1.18-2.93-1.731-6.56-3.321-9.198-4.027-.395-.106-.71-.202-.698-.214.043-.043 1.335.233 2.726.58.784.197 1.47.35 1.524.339.13-.026-1.27-.676-2.246-1.044-.42-.159-.756-.319-.749-.356.008-.038-.218-.138-.514-.227-.29-.088-.514-.174-.498-.19s-.004-.07-.044-.12c-.064-.078-.026-.084.315-.052.213.02.884.144 1.491.277.607.132 1.115.229 1.129.215.039-.04-1.531-.543-2.303-.738-2.333-.59-4.645-.814-7.9-.764-1.5.023-1.893.048-2.486.157-1.728.32-4.18 1.09-5.398 1.694-.915.454-1.73.957-1.73 1.067 0 .044-.126.19-.28.324-.233.204-.252.234-.113.184.09-.033.179-.06.196-.06.016 0-.283.245-.664.543-.932.729-1.659 1.369-2.19 1.928-.243.254-.388.42-.324.37.39-.308.296-.167-.556.838-.262.31-.64.777-.84 1.039l-.361.474.545-.504c.636-.587.798-.703.636-.453-.057.089-.18.292-.274.452-.093.16-.29.472-.437.694s-.267.456-.267.52c0 .065-.278.563-.617 1.107-1.2 1.925-2.03 3.506-2.805 5.336-.403.954-1.158 3.064-1.153 3.223.001.038.092-.118.2-.347s.2-.395.204-.37c.017.16-.395 2.248-.669 3.384-.179.744-.511 2.186-.739 3.204-.718 3.216-1.05 4.443-1.285 4.745-.06.076-.214.37-.343.652-.234.512-.649 1.2-.695 1.152-.013-.013.08-.288.206-.61.307-.782.548-1.555.794-2.551.252-1.018.517-2.286.485-2.319-.013-.013-.08.17-.15.409-.33 1.143-.916 2.854-1.12 3.271-.278.568-.471.83-.753 1.022-.118.081-.321.234-.451.34s-.54.325-.91.485-1.333.629-2.14 1.04c-1.533.782-2.85 1.35-3.199 1.379-.18.015-.202.002-.19-.117s-.012-.133-.235-.133c-.535 0-2.875.925-4.419 1.747-1.1.585-3.462 2.035-3.407 2.091.01.01.359-.14.776-.331.874-.403 1.884-.79 3.502-1.34 1.066-.361 1.451-.452 1.451-.342 0 .04-.14.254-.507.774-.196.277-.031.285.92.046.893-.224 1.054-.234 1.054-.065 0 .051.072.12.16.154.316.122 1.158-.1 2.774-.73 2.14-.833 2.317-.848.88-.074-.86.463-1.525.893-1.525.986 0 .087.222.057.976-.132.4-.1.752-.174.78-.163.042.015-7.01 3.058-7.237 3.123-.036.01.029-.043.143-.119.402-.265.665-.495.83-.724.259-.362.231-.408-.21-.36-.342.037-.4.026-.65-.123-.253-.15-.31-.16-.724-.13-.606.043-1.333.288-3.033 1.022-1.946.841-3.122 1.4-4.664 2.22a656 656 0 0 1-2.817 1.484c-1.442.755-2.053 1.127-2.053 1.252 0 .033.177.058.407.058.224 0 .422.024.44.053.017.029.15.07.295.092.146.022.308.084.36.138.09.09.124.09.469-.002.674-.179 2.024-.756 3.573-1.527a56 56 0 0 1 5.824-2.546c1.73-.653 3.94-1.37 4.225-1.37.168 0 .045.13-.411.434-.266.178-.537.384-.602.458l-.117.134.263-.041c.145-.023 1.293-.392 2.552-.82 1.87-.635 2.354-.778 2.642-.783.326-.005.353.005.371.134.012.085-.061.262-.19.459-.24.365-.26.476-.093.53.22.07.789-.1 2.582-.772.984-.37 2.629-.97 3.655-1.334a88 88 0 0 0 3.169-1.197c2.409-.987 3.985-1.598 5.43-2.104 2.49-.872 3.507-1.258 5.377-2.043 1-.42 2.189-.9 2.64-1.068 1.235-.46 5.407-1.93 5.81-2.047.582-.17 2.235-.79 3.093-1.16 1.072-.464 5.327-2.537 7.234-3.524.839-.435 3.294-1.624 5.456-2.642 4.613-2.172 5.262-2.492 7.481-3.683 2.201-1.181 3.616-1.895 4.87-2.457.565-.253 1.648-.761 2.406-1.129s1.775-.829 2.259-1.026c.835-.34 1.273-.492 2.848-.989.715-.225 2.11-.872 2.11-.978 0-.035-.106-.063-.235-.063-.148 0-.234-.027-.234-.074 0-.04.218-.287.485-.549.356-.348.64-.56 1.07-.795 1.277-.698 2.395-1.351 2.657-1.552.24-.184.274-.237.258-.398-.015-.162.018-.212.264-.394.155-.114.731-.467 1.28-.785 1.646-.952 2.265-1.38 3.151-2.179.564-.508.562-.533-.026-.487l-.485.038.235-.216c.623-.573 1.826-1.245 3.587-2.006a18 18 0 0 1 2.904-.986c1.295-.32 1.947-.352 2.33-.116.175.107.176.11.164.624l-.013.517-.33.312c-1.279 1.203-4.133 3.182-7.292 5.057-5.449 3.233-10.387 5.93-15.227 8.318l-4.664 2.303c-1.388.685-3.315 1.62-4.284 2.078s-2.248 1.065-2.845 1.35c-.597.283-1.851.863-2.787 1.287s-2.6 1.18-3.697 1.68c-1.67.759-7.419 3.243-9.887 4.27-.37.155-1.515.64-2.542 1.078s-2.797 1.18-3.932 1.648a808 808 0 0 0-3.852 1.606c-1.875.788-6.63 2.721-8.399 3.414-.911.357-3.07 1.165-9.673 3.62-4.108 1.526-8.065 2.86-10.004 3.374-.743.196-1.78.491-2.306.656-.525.164-1.247.351-1.603.416-.827.15-.91.173-2.289.624-.633.207-1.464.447-1.848.534-1.113.25-1.494.355-3.137.863-2.83.876-3.837 1.065-5.668 1.066-.837 0-1.138-.019-1.173-.074zm7.961-6.657c1.315-.628 1.76-.879 1.76-.99q-.002-.066-.269-.036c-.47.053-2.382 1.081-2.865 1.54-.175.167-.176.171-.034.13.08-.022.714-.312 1.408-.644m17.223-.068c1.514-.443 5.253-1.9 6.1-2.376 1.039-.584 1.209-.776.631-.714-.647.069-1.379.374-4.503 1.88a141 141 0 0 1-2.377 1.126c-.674.296-.64.315.15.084zm11.006-4.054c1.188-.41 2.062-.744 3.889-1.485 2.713-1.1 3.421-1.42 3.166-1.425-.201-.004-.809.203-2.713.925-.983.373-2.095.754-2.47.848a7 7 0 0 0-1.18.41c-.495.242-1.715 1.019-1.598 1.019.034 0 .442-.131.906-.292M33.892 72.1c1.605-.554 3.067-1.24 3.523-1.655.285-.26.624-.724.719-.985.022-.06-.12.039-.316.222-.285.267-.567.437-1.424.857-.974.479-2.925 1.548-3.06 1.678-.093.09.036.064.558-.117m36.58-5.108a85 85 0 0 0 4.607-1.959c1.52-.7 4.404-2.094 4.38-2.118-.041-.042-1.71.491-2.51.802-1.62.63-5.366 2.28-6.629 2.92-.956.485-1.208.647-1.103.713.112.07.25.031 1.256-.358zm26.64-12.525c1.22-.614 2.462-1.305 2.603-1.448.21-.212-1.02.233-2.204.798-.817.39-1.508.82-1.896 1.183l-.323.3.323-.12c.177-.068.85-.388 1.496-.713m-9.315-5.662c.199-.11.307-.208.307-.278 0-.132-.051-.134-.469-.02-.7.19-1.58.074-2.744-.36-.314-.118-1.643-.746-2.954-1.396-3.07-1.523-3.188-1.552-.756-.184 2.466 1.388 4.07 2.143 5.016 2.36.194.045.564.074.823.064.386-.014.525-.047.777-.186m-8.17-2.64c-.076-.125-1.039-.722-1.703-1.057-.893-.45-1.833-.8-1.64-.612.145.142 3.225 1.724 3.36 1.726.01 0 .002-.026-.017-.057m17.489-.447c.601-.166 1.683-.562 1.938-.708l.17-.097-.206.037c-.241.043-2.43.771-2.573.855-.18.107.107.07.67-.087m15.456-.507c.56-.159.817-.31 2.127-1.25 1.482-1.063 1.687-1.225 1.687-1.336 0-.084-.057-.094-.408-.068-.506.036-.939.236-2.116.976-.468.294-1.188.731-1.601.972-.877.512-1.138.712-1.07.825.066.107.806.044 1.381-.12M65.456 85.763c-2.584-.155-5.948-.97-8.743-2.117-2.078-.853-3.483-1.595-6.571-3.473-2.195-1.334-3.622-2.125-4.093-2.267-.137-.042-.25-.092-.25-.113s.333-.18.738-.354c.615-.265.76-.307.873-.255.075.034.898.541 1.83 1.126 2.022 1.27 2.539 1.573 2.993 1.76.19.078 1.016.478 1.838.889 1.39.695 1.697.832 1.554.693-.03-.03-.565-.352-1.187-.715-1.778-1.037-2.961-1.82-4.373-2.897-.77-.586-1.625-1.309-1.625-1.373 0-.028.174-.122.386-.207l.385-.157.333.3c.184.166.641.574 1.017.907s.66.62.631.639c-.07.044.81.717 2.03 1.553 2.545 1.746 4.476 2.7 7.058 3.488 1.006.308 1.346.45.922.386-.18-.027-.214-.02-.147.03.15.114-.55.014-1.503-.214-.48-.115-.969-.219-1.085-.23-.26-.028-1.01-.279-2.054-.689-.432-.17-.983-.374-1.224-.454-.702-.235-3.768-1.829-5.458-2.839-1.498-.896-2.396-1.39-2.522-1.39-.15 0-.009.124.688.605.412.285.858.619.992.742.598.552 3.589 2.325 5.683 3.37 2.926 1.458 5.29 2.249 8.068 2.697 1.692.274 3.817.396 5.104.295a20.5 20.5 0 0 0 3.032-.495c1.976-.506 4.074-1.6 5.901-3.074.788-.636 2.293-2.16 2.943-2.983.57-.72 1.668-2.37 2.139-3.212.699-1.251 1.426-2.905 2.004-4.561.601-1.722 1.265-4.144 1.211-4.42-.016-.082.007-.416.051-.743l.207-1.543c.07-.523.14-1.016.158-1.097.018-.082.015-.133-.006-.114s-.224.767-.452 1.662c-.67 2.633-1.156 4.242-1.405 4.652-.06.098-.282.602-.495 1.119-.361.877-.61 1.419-.616 1.34a3 3 0 0 1 .09-.347c.099-.34.087-.441-.028-.225-.068.129-.29.31-.329.269-.01-.01.087-.38.214-.82.379-1.316.637-2.437.637-2.77 0-.171.067-.73.15-1.24s.142-.994.132-1.077c-.01-.085-.13.27-.275.822-.14.534-.315 1.118-.387 1.298-.071.18-.283.774-.47 1.322-.186.548-.348.988-.358.977s.06-.286.156-.61c.63-2.121 1.066-4.62 1.141-6.555l.029-.741-.138.774c-.144.811-.273 1.197-.267.798.002-.114.034-.606.072-1.092l.068-.884.669-.29c.367-.158.68-.276.694-.262s-.031.764-.1 1.667a52 52 0 0 1-.322 3.235c-.026.198-.021.195.114-.09.077-.163.142-.248.144-.189.002.06.028.093.058.074s.065 0 .078.041c.039.114.356-1.268.769-3.354.206-1.037.384-1.892.396-1.901a37 37 0 0 1 .806-.351c.575-.246.77-.309.74-.235-.404.94-.628 1.748-1.23 4.432-.502 2.23-.726 3.132-1.122 4.51-1.266 4.4-3.3 8.273-5.754 10.953-1.652 1.804-3.219 3.014-5.152 3.975a15.4 15.4 0 0 1-4.807 1.513c-.583.086-2.637.15-3.378.106zm-2.171-3.88c-1.11-.072-2.455-.337-3.814-.752-.707-.217-.713-.217-.323-.022.194.096.316.177.272.179-.095.003-2.684-.858-3.044-1.013-.493-.213-.234-.046.557.36.828.423.95.508.425.3-1.499-.598-3.513-1.732-5.221-2.94-.755-.534-2.48-1.871-2.451-1.9.009-.009.153-.071.32-.138l.305-.121.458.373c1.634 1.331 3.123 2.292 5.123 3.303 1.985 1.003 3.51 1.503 5.926 1.94.872.158.99.165 2.817.165 2.313 0 3.133-.106 4.928-.632 3.073-.9 5.846-2.867 8.187-5.806 2.338-2.937 4.024-7.656 4.519-12.649.032-.318.06-.4.15-.424.097-.026.107-.003.082.187-.015.12-.07.591-.121 1.048a23 23 0 0 1-.678 3.53c-1.413 5.248-3.414 8.73-6.428 11.184-2.504 2.04-5.564 3.39-8.469 3.734-.94.112-2.581.156-3.52.095zm-23.462-7.706c.092-.147.273-.539.4-.87.408-1.053.674-2.257 1.38-6.228.575-3.233.999-4.988 1.734-7.18 1.146-3.419 2.576-6.357 3.978-8.174.285-.37.371-.409.212-.094l-.1.198.125-.113c.069-.062.125-.091.125-.065s-.168.344-.374.706c-.483.853-.964 1.823-.999 2.019-.015.084-.152.427-.303.761-.508 1.119-.913 2.203-1.169 3.13-.139.506-.372 1.334-.517 1.84-.592 2.059-1.076 4.96-1.658 9.938-.175 1.5-.335 2.852-.355 3.005l-.036.276-2.612 1.12zm1.78-1.505c.151-.509.358-1.727.705-4.145.38-2.655.533-3.602.856-5.297.13-.681.223-1.25.209-1.266-.015-.015-.102.204-.193.486-.09.282-.173.488-.183.457-.052-.157.534-2.39 1.02-3.886.41-1.264.399-1.223.317-1.094-.201.316-.836 2.289-1.198 3.723-.434 1.717-1.023 4.904-1.448 7.832-.146 1.005-.189 1.512-.201 2.389-.009.612-.007 1.112.004 1.112.012 0 .062-.14.113-.311"/><path fill="#4222b4" d="M65.955 85.518c-3.036-.089-6.088-.74-9.036-1.93-1.1-.444-3.515-1.644-4.743-2.357-1.371-.797-3.009-1.842-3.287-2.099-.134-.123-.58-.457-.992-.741-.697-.482-.838-.606-.688-.606.126 0 1.023.494 2.522 1.39 1.69 1.01 4.756 2.605 5.458 2.839.241.08.792.285 1.224.454 1.044.41 1.794.662 2.054.688.116.013.605.116 1.085.231.954.228 1.654.328 1.503.215-.067-.05-.033-.058.147-.03.424.063.084-.08-.922-.387-2.582-.788-4.513-1.742-7.058-3.487-1.303-.894-2.099-1.51-2.016-1.562q.066-.04-.023-.092c-.153-.09-1.921-1.696-1.921-1.746 0-.026.094-.078.208-.116.2-.067.222-.06.514.175 2.43 1.953 4.723 3.407 6.847 4.344.95.42.991.392.103-.067-.796-.412-1.044-.574-.558-.364.36.155 2.949 1.016 3.044 1.013.044-.002-.078-.082-.271-.179-.39-.195-.385-.195.322.022 2.14.654 3.905.873 6.085.755.607-.032 1.367-.1 1.69-.15 2.769-.428 5.665-1.756 8.029-3.681 3.014-2.455 5.013-5.934 6.428-11.183.348-1.293.553-2.381.708-3.766.09-.804.133-1.022.216-1.083.23-.17.233-.128.105 1.645-.049.674.08.383.249-.56l.138-.776-.03.742c-.074 1.934-.51 4.434-1.14 6.554-.097.325-.167.6-.157.61s.173-.428.36-.976c.186-.548.397-1.143.469-1.322s.246-.764.387-1.299c.145-.55.264-.906.275-.821.01.083-.05.568-.132 1.078-.083.51-.15 1.068-.15 1.24 0 .332-.259 1.453-.638 2.768-.127.441-.223.81-.213.82.039.042.26-.14.329-.268.114-.217.127-.115.027.225-.05.172-.091.328-.09.347.006.078.255-.463.617-1.34.213-.518.435-1.02.495-1.119.248-.41.734-2.02 1.405-4.653.228-.894.431-1.642.452-1.661s.023.032.006.114c-.018.081-.089.575-.158 1.097l-.207 1.543c-.044.326-.067.66-.051.743.054.276-.61 2.698-1.211 4.42-.579 1.656-1.305 3.31-2.004 4.561-.47.842-1.569 2.491-2.139 3.212-.65.822-2.155 2.347-2.943 2.982-1.887 1.523-4.048 2.63-6.087 3.12-1.19.285-3.141.538-3.867.501-.132-.006-.478-.019-.769-.027zm-48.637-4.22c.483-.458 2.395-1.486 2.865-1.54q.516-.058.02.263c-.28.18-2.69 1.343-2.92 1.408-.141.04-.14.036.035-.13m17.984-.45c.013-.013.222-.11.464-.216s1.312-.613 2.377-1.126c2.24-1.079 3.164-1.498 3.748-1.7.483-.167 1.092-.251 1.092-.152 0 .214-1.306.917-2.816 1.517-2.362.936-5.08 1.873-4.865 1.677M23.503 77.71c.151-.174 2.39-1.542 3.429-2.095 1.543-.821 3.883-1.746 4.418-1.746.223 0 .248.013.235.133-.012.118.01.132.19.117.348-.03 1.666-.597 3.2-1.38.806-.41 1.77-.878 2.14-1.039s.78-.379.91-.485.332-.259.45-.34c.282-.192.475-.454.753-1.022.204-.417.79-2.128 1.12-3.271.07-.239.137-.423.15-.41.032.034-.232 1.301-.484 2.32-.247.996-.488 1.769-.795 2.55-.127.323-.22.598-.206.611.047.047.461-.64.695-1.152.129-.282.283-.576.343-.653.235-.302.567-1.529 1.285-4.744.228-1.019.56-2.46.74-3.204.273-1.136.685-3.225.668-3.384-.003-.025-.094.141-.203.37s-.2.385-.2.347c-.006-.16.749-2.27 1.152-3.224.775-1.829 1.606-3.41 2.805-5.335.34-.544.617-1.042.617-1.107s.12-.298.267-.52.344-.535.437-.694c.094-.16.217-.364.274-.452.162-.25 0-.134-.635.453l-.546.504.362-.475c.199-.26.577-.728.84-1.038.852-1.005.945-1.146.556-.839-.065.051.08-.115.322-.37q.796-.837 2.19-1.927c.383-.299.681-.543.665-.543s-.105.027-.196.06c-.138.05-.12.02.114-.185.153-.134.278-.28.278-.323 0-.11.816-.613 1.731-1.067 1.217-.605 3.67-1.374 5.398-1.694.593-.11.987-.134 2.487-.157 3.254-.05 5.566.173 7.899.763.772.196 2.342.7 2.303.739-.014.014-.522-.083-1.129-.216-.606-.132-1.278-.257-1.49-.277-.341-.032-.38-.025-.315.053.04.05.06.103.043.12s.208.101.498.19c.296.09.522.19.514.227-.007.037.33.197.75.355.976.369 2.375 1.02 2.246 1.044-.055.01-.741-.141-1.525-.337-1.39-.349-2.683-.624-2.726-.581-.011.011.303.108.698.214 2.637.706 6.267 2.295 9.198 4.028.94.555 1.835 1.142 1.8 1.178-.014.013-.237-.07-.496-.186-.26-.115-.511-.21-.559-.21s-.519-.216-1.047-.48c-2.072-1.04-5.875-2.536-6.286-2.475-.112.017-.106.034.077.219.145.146.168.191.084.166-.31-.095-.68-.172-.704-.147-.015.015.31.17.721.344 1.05.443 1.91.863 2.107 1.028.092.077.59.375 1.106.662a42 42 0 0 1 3.446 2.12c.916.62 2.621 1.882 3.037 2.246l.147.128-.178-.11c-.098-.061-.573-.38-1.057-.71-1.14-.778-1.567-1.025-1.514-.875.067.19.201.312 1.169 1.064 1.112.865 1.367 1.12.663.662-.726-.471-.829-.508-.462-.164.253.237.039.112-.997-.584-1.72-1.154-2.678-1.717-4.254-2.501-1.608-.8-2.622-1.205-4.155-1.662-2.744-.817-4.8-1.154-6.994-1.149-2.85.008-4.988.557-7.833 2.013-1.884.964-3.428 2.072-5.126 3.676-.5.472-.919.827-.93.79-.031-.091-.399.251-.864.804-.379.45-.482.527-.357.266.146-.305-.322.306-.847 1.107-1.865 2.847-3.027 6.025-4.022 11.007-.362 1.81-.59 3.426-.817 5.756-.096.995-.185 1.903-.198 2.018-.012.114-.029-.273-.037-.86-.018-1.208-.058-1.162-.21.236-.052.49-.106.947-.12 1.017-.022.116-.345.312-.409.247-.027-.027.173-1.795.592-5.228.194-1.595.327-2.467.788-5.171.195-1.145.406-2.048.737-3.152.114-.381.301-1.043.416-1.472.22-.823.655-1.991 1.143-3.066.162-.356.306-.718.322-.802.035-.196.515-1.166.999-2.02.205-.362.374-.68.374-.706s-.057.004-.126.066l-.125.113.1-.198c.16-.315.074-.277-.212.093-1.402 1.818-2.831 4.756-3.978 8.175-.735 2.192-1.158 3.947-1.733 7.18-.706 3.97-.973 5.175-1.38 6.227a7 7 0 0 1-.4.87l-.167.266-2.341 1c-1.423.608-2.491 1.03-2.723 1.075-.21.041-.59.13-.847.199-.496.131-.737.155-.737.073 0-.093.665-.523 1.526-.986 1.437-.774 1.26-.76-.88.074-1.617.63-2.459.852-2.774.73-.088-.034-.16-.103-.16-.154 0-.169-.162-.159-1.054.065-.952.24-1.117.231-.92-.046.366-.52.507-.734.507-.774 0-.11-.386-.02-1.451.343-1.589.54-2.625.935-3.449 1.315-.784.362-.893.408-.85.359zm23.034-1.145c.822-.548 1.462-.843 2.256-1.04.376-.093 1.488-.475 2.47-.848 1.905-.722 2.512-.929 2.714-.925.255.006-.453.324-3.166 1.425-2.18.885-4.589 1.777-4.795 1.777-.035 0 .2-.175.52-.389m-13.203-4.352c.135-.13 2.086-1.2 3.06-1.678.857-.421 1.139-.59 1.424-.858.196-.183.338-.283.316-.222-.095.261-.434.726-.72.985-.455.414-1.917 1.102-3.522 1.655-.522.18-.651.208-.558.118m35.883-4.868c-.105-.065.147-.228 1.103-.713 1.264-.64 5.008-2.29 6.629-2.92.8-.31 2.469-.844 2.51-.802.024.024-2.86 1.418-4.38 2.118a85 85 0 0 1-4.606 1.96c-1.007.388-1.144.427-1.256.357zm26.398-12.35c.388-.362 1.08-.793 1.896-1.183 1.184-.564 2.414-1.01 2.204-.798-.23.232-3.36 1.882-4.1 2.16l-.323.122zm-9.417-6.072c-.946-.218-2.551-.973-5.017-2.36-2.432-1.368-2.314-1.34.757.184 1.31.65 2.64 1.277 2.954 1.395 1.163.434 2.044.55 2.743.36.418-.113.47-.111.47.02 0 .07-.109.17-.308.279-.252.139-.391.172-.777.186-.259.009-.629-.02-.822-.064M96.445 45.8c.142-.084 2.332-.812 2.573-.856l.205-.037-.169.097c-.424.243-2.29.86-2.588.855-.104-.002-.106-.009-.02-.06m14.746-.476c-.068-.112.192-.313 1.07-.824a69 69 0 0 0 1.6-.973c1.178-.74 1.611-.94 2.117-.976.35-.025.408-.016.408.068 0 .111-.205.274-1.687 1.337-1.31.94-1.567 1.09-2.127 1.25-.575.162-1.315.226-1.38.118"/></svg>