<svg stroke-linejoin="round" version="1.1" viewBox="0 0 100 24" xmlns="http://www.w3.org/2000/svg">
 <path d="m33.44 11.167h0.468c0.43333 0 0.74533-0.13578 0.936-0.40733l2.8427-4.1253c0.156-0.22533 0.33222-0.37844 0.52866-0.45933 0.20222-0.080889 0.44778-0.12133 0.73667-0.12133h2.548l-3.744 5.1047c-0.13289 0.18489-0.27156 0.338-0.416 0.45933-0.14444 0.12133-0.29178 0.22244-0.442 0.30333 0.21956 0.08089 0.41889 0.19356 0.598 0.338 0.18489 0.13867 0.35244 0.32644 0.50267 0.56333l3.8133 5.8587h-2.6173c-0.16756 0-0.312-0.01156-0.43333-0.03467-0.11556-0.02311-0.21667-0.05778-0.30333-0.104-0.08667-0.04622-0.16178-0.10111-0.22533-0.16467-0.06355-0.06933-0.12422-0.14733-0.182-0.234l-2.86-4.394c-0.104-0.16178-0.23689-0.27444-0.39867-0.338-0.156-0.06933-0.36978-0.104-0.64133-0.104h-0.71067v5.3733h-2.9293v-12.627h2.9293zm21.649 1.196c0 0.91289-0.15889 1.7622-0.47666 2.548-0.312 0.78578-0.754 1.4704-1.326 2.054-0.572 0.57778-1.2624 1.0313-2.0713 1.3607-0.80311 0.32933-1.6958 0.494-2.678 0.494s-1.8778-0.16467-2.6867-0.494-1.5022-0.78289-2.08-1.3607c-0.572-0.58356-1.0169-1.2682-1.3347-2.054-0.312-0.78578-0.468-1.6351-0.468-2.548s0.156-1.7622 0.468-2.548c0.31778-0.78578 0.76266-1.4676 1.3347-2.0453 0.57778-0.57778 1.2711-1.0313 2.08-1.3607s1.7044-0.494 2.6867-0.494 1.8749 0.16756 2.678 0.50267c0.80889 0.32933 1.4993 0.78289 2.0713 1.3607s1.014 1.2596 1.326 2.0453c0.31778 0.78578 0.47666 1.6322 0.47666 2.5393zm-2.9987 0c0-0.624-0.08089-1.1844-0.24267-1.6813-0.16178-0.50267-0.39578-0.92733-0.702-1.274-0.30044-0.34667-0.67022-0.61244-1.1093-0.79733-0.43911-0.18489-0.93889-0.27733-1.4993-0.27733-0.56622 0-1.0718 0.092444-1.5167 0.27733-0.43911 0.18489-0.81178 0.45067-1.118 0.79733-0.30044 0.34667-0.53155 0.77133-0.69333 1.274-0.16178 0.49689-0.24267 1.0573-0.24267 1.6813 0 0.62978 0.08089 1.196 0.24267 1.6987 0.16178 0.49689 0.39289 0.91866 0.69333 1.2653 0.30622 0.34667 0.67889 0.61244 1.118 0.79733 0.44489 0.17911 0.95044 0.26867 1.5167 0.26867 0.56044 0 1.0602-0.08955 1.4993-0.26867 0.43911-0.18489 0.80889-0.45067 1.1093-0.79733 0.30622-0.34667 0.54022-0.76844 0.702-1.2653 0.16178-0.50267 0.24267-1.0689 0.24267-1.6987zm11.44-3.744c-0.08667 0.13867-0.17911 0.24267-0.27733 0.312-0.09244 0.069333-0.21378 0.104-0.364 0.104-0.13289 0-0.27733-0.040444-0.43333-0.12133-0.15022-0.086666-0.32356-0.182-0.52-0.286-0.19067-0.104-0.41022-0.19644-0.65867-0.27733-0.24844-0.086666-0.53155-0.13-0.84933-0.13-0.54889 0-0.95911 0.11844-1.2307 0.35533-0.26578 0.23111-0.39867 0.546-0.39867 0.94466 0 0.25422 0.08089 0.46511 0.24267 0.63267 0.16178 0.16756 0.37267 0.312 0.63266 0.43333 0.26578 0.12133 0.56622 0.234 0.90133 0.338 0.34089 0.09822 0.68755 0.21089 1.04 0.338 0.35244 0.12133 0.69622 0.26578 1.0313 0.43333 0.34089 0.16756 0.64133 0.38133 0.90133 0.64133 0.26578 0.26 0.47955 0.57778 0.64133 0.95333 0.16178 0.36978 0.24267 0.81755 0.24267 1.3433 0 0.58355-0.10111 1.1296-0.30333 1.638-0.20222 0.50844-0.49689 0.95333-0.884 1.3347-0.38133 0.37556-0.85511 0.67311-1.4213 0.89266-0.56044 0.21378-1.1989 0.32067-1.9153 0.32067-0.39289 0-0.79444-0.04044-1.2047-0.12133-0.40444-0.08089-0.79733-0.19356-1.1787-0.338-0.38133-0.15022-0.73955-0.32644-1.0747-0.52866-0.33511-0.20222-0.62689-0.42756-0.87533-0.676l0.86666-1.3693c0.06355-0.104 0.15311-0.18778 0.26867-0.25133 0.11556-0.06355 0.23978-0.09533 0.37267-0.09533 0.17333 0 0.34667 0.05489 0.52 0.16467 0.17911 0.10978 0.37844 0.23111 0.598 0.364 0.22533 0.13289 0.48244 0.25422 0.77133 0.364 0.28889 0.10978 0.62978 0.16467 1.0227 0.16467 0.53156 0 0.94466-0.11556 1.2393-0.34667 0.29467-0.23689 0.442-0.60956 0.442-1.118 0-0.29467-0.08089-0.53444-0.24267-0.71933-0.16178-0.18489-0.37556-0.338-0.64133-0.45933-0.26-0.12133-0.55755-0.22822-0.89266-0.32067-0.33511-0.09244-0.67889-0.19356-1.0313-0.30333-0.35244-0.11556-0.69622-0.25422-1.0313-0.416-0.33511-0.16756-0.63555-0.38422-0.90133-0.65-0.26-0.27156-0.47089-0.60667-0.63267-1.0053-0.16178-0.40444-0.24267-0.90133-0.24267-1.4907 0-0.47378 0.09533-0.936 0.286-1.3867 0.19067-0.45067 0.47089-0.85222 0.84066-1.2047 0.36978-0.35244 0.82333-0.63267 1.3607-0.84067 0.53733-0.21378 1.1527-0.32067 1.846-0.32067 0.38711 0 0.76266 0.031778 1.1267 0.095333 0.36978 0.057777 0.71933 0.14733 1.0487 0.26867 0.32933 0.11556 0.63555 0.25711 0.91866 0.42467 0.28889 0.16178 0.546 0.34667 0.77133 0.55467zm8.814 4.29c0.11556 0.21956 0.22533 0.44778 0.32933 0.68466 0.10978 0.23689 0.21378 0.47955 0.312 0.728 0.09822-0.25422 0.20222-0.49978 0.312-0.73666 0.10978-0.24267 0.22244-0.47666 0.338-0.702l3.2413-6.3787c0.05778-0.10978 0.11556-0.19356 0.17333-0.25133 0.06355-0.063555 0.13289-0.10978 0.208-0.13867 0.07511-0.028889 0.15889-0.046222 0.25133-0.052 0.09822-0.00578 0.21089-0.00867 0.338-0.00867h2.236v12.627h-2.5827v-7.2627c0-0.35244 0.01733-0.73378 0.052-1.144l-3.3453 6.4913c-0.104 0.20222-0.24556 0.35533-0.42467 0.45933-0.17333 0.104-0.37267 0.156-0.598 0.156h-0.39867c-0.22533 0-0.42755-0.052-0.60666-0.156-0.17333-0.104-0.312-0.25711-0.416-0.45933l-3.3627-6.5c0.02311 0.20222 0.04045 0.40444 0.052 0.60667 0.01155 0.19644 0.01733 0.37844 0.01733 0.546v7.2627h-2.5827v-12.627h2.236c0.12711 0 0.23689 0.00289 0.32933 0.00867 0.09822 0.00578 0.18489 0.023113 0.26 0.052 0.07511 0.028889 0.14156 0.075111 0.19933 0.13867 0.06355 0.057777 0.12422 0.14156 0.182 0.25133l3.25 6.4047zm13.026 5.772h-2.9467v-12.627h2.9467zm10.825-3.2673c0.06933 0 0.13867 0.01444 0.208 0.04333 0.06933 0.02311 0.13578 0.06645 0.19933 0.13l1.1613 1.222c-0.50844 0.66444-1.1469 1.1671-1.9153 1.508-0.76266 0.33511-1.6669 0.50267-2.7127 0.50267-0.95911 0-1.82-0.16178-2.5827-0.48533-0.75689-0.32933-1.4011-0.78-1.9327-1.352-0.52578-0.57778-0.93022-1.2596-1.2133-2.0453-0.28311-0.79155-0.42467-1.6496-0.42467-2.574 0-0.94178 0.16178-1.8056 0.48533-2.5913 0.32356-0.79155 0.77422-1.4733 1.352-2.0453 0.58355-0.572 1.2798-1.0169 2.0887-1.3347 0.80889-0.31778 1.7016-0.47667 2.678-0.47667 0.47378 0 0.91866 0.043333 1.3347 0.13 0.42178 0.080889 0.81467 0.19644 1.1787 0.34667 0.364 0.14444 0.69911 0.32067 1.0053 0.52867 0.30622 0.20222 0.57778 0.42755 0.81466 0.676l-0.988 1.326c-0.06355 0.080889-0.13866 0.156-0.22533 0.22533-0.08667 0.063555-0.208 0.095333-0.364 0.095333-0.104 0-0.20222-0.023111-0.29467-0.069333-0.092445-0.046222-0.19067-0.10111-0.29467-0.16467-0.104-0.069333-0.21956-0.14156-0.34667-0.21667-0.12133-0.080889-0.26867-0.15311-0.442-0.21667-0.16756-0.069333-0.36689-0.12711-0.598-0.17333-0.22533-0.046222-0.49111-0.069333-0.79733-0.069333-0.53156 0-1.0169 0.095333-1.456 0.286-0.43911 0.18489-0.81756 0.45355-1.1353 0.806-0.312 0.34667-0.55755 0.76844-0.73666 1.2653-0.17333 0.49689-0.26 1.0544-0.26 1.6727 0 0.64711 0.08667 1.222 0.26 1.7247 0.17911 0.50267 0.41889 0.92733 0.71933 1.274 0.30622 0.34089 0.66156 0.60089 1.066 0.78 0.40444 0.17911 0.83778 0.26867 1.3 0.26867 0.26578 0 0.50844-0.01156 0.728-0.03467 0.21956-0.02889 0.42178-0.07511 0.60667-0.13867 0.19067-0.06355 0.36978-0.14444 0.53733-0.24267 0.17333-0.104 0.34667-0.23111 0.52-0.38133 0.06933-0.05778 0.14444-0.104 0.22533-0.13867 0.08089-0.04045 0.16467-0.06067 0.25133-0.06067z" color="#000000" color-rendering="auto" dominant-baseline="auto" fill="#f9f9f9" fill-opacity=".87451" image-rendering="auto" shape-rendering="auto" solid-color="#000000" stop-color="#000000" style="-inkscape-stroke:none;font-feature-settings:normal;font-variant-alternates:normal;font-variant-caps:normal;font-variant-east-asian:normal;font-variant-ligatures:normal;font-variant-numeric:normal;font-variant-position:normal;font-variation-settings:normal;inline-size:0;isolation:auto;mix-blend-mode:normal;paint-order:stroke fill markers;shape-margin:0;shape-padding:0;text-decoration-color:#000000;text-decoration-line:none;text-decoration-style:solid;text-indent:0;text-orientation:mixed;text-transform:none;white-space:normal" aria-label="KOSMIC"/>
 <g transform="matrix(.012932 0 0 .015284 .98489 -3.1051)">
  <path d="m746.44 1281.4c-1.864-1.4934-1.8518-1.5118 0.30887-0.4648 1.2375 0.5997 2.25 1.2995 2.25 1.5552 0 0.7652-0.51861 0.5442-2.5589-1.0904zm-12.441-6.4448c-3.025-1.5981-5.1475-2.9269-4.7168-2.9528 1.0628-0.064 10.717 4.8632 10.717 5.4696 0 0.6681 0.1387 0.7263-6-2.5168zm-11-5c-0.825-0.5332-1.05-0.9694-0.5-0.9694s1.675 0.4362 2.5 0.9694 1.05 0.9694 0.5 0.9694-1.675-0.4362-2.5-0.9694zm-10-3.1553c-5.3373-1.5412-5.7292-1.7808-2.1908-1.3395 2.37 0.2955 5.745 1.1661 7.5 1.9345 4.2664 1.8681 2.5578 1.6766-5.3092-0.595zm-18.5-0.8447c1.1-0.4727 2.9-0.8462 4-0.83 1.6078 0.024 1.5097 0.1864-0.5 0.83-3.4192 1.095-6.0482 1.095-3.5 0zm7.769-1.693c0.97297-0.2535 2.323-0.2369 3 0.037s-0.11903 0.4813-1.769 0.461c-1.65-0.02-2.2039-0.2445-1.231-0.4981zm297.73-2.3687c-42.531-4.664-84.194-20.928-117.52-45.878-12.511-9.3659-24.728-20.22-23.775-21.122 0.43759-0.4141 3.6694-1.9511 7.1818-3.4156l6.3862-2.6628 3.6138 3.4184c22.408 21.196 58.87 40.591 92.524 49.217 20.034 5.1346 34.134 6.8588 56.09 6.8588s36.056-1.7242 56.09-6.8588c78.676-20.164 140.76-82.294 160.95-161.07 3.1252-12.194 5.5183-27.379 7.0051-44.449l0.5685-6.5267 6.1903-2.4733c3.4046-1.3603 6.6021-2.6475 7.1056-2.8604 0.5451-0.2305 0.6568 4.7126 0.2762 12.222-3.0103 59.394-27.542 114.58-69.656 156.69-36.111 36.111-82.278 59.523-133.03 67.46-12.48 1.9518-47.672 2.803-60 1.4511zm-249.77-100.69c-2.6139-0.8713-1.2948-6.8314 2.7676-12.504 2.4372-3.4035 4-6.7058 4-8.4524 0-2.7946 0.58891-3.1132 23.5-12.713 12.925-5.4156 23.5-10.286 23.5-10.822 0-0.5364-1.6003-5.2481-3.5563-10.47-4.5706-12.203-9.8232-32.733-12.107-47.317-2.5176-16.081-2.5176-52.848 0-68.929 8.1136-51.826 31.242-97.67 67.636-134.06s82.237-59.522 134.06-67.636c16.081-2.5176 52.848-2.5176 68.929 0 31.068 4.8639 61.683 15.789 87.802 31.331 39.285 23.378 74.858 62.545 93.278 102.7l4.2692 9.3071 32.187-13.719 7.5 1.1613c7.3365 1.136 11 2.9458 11 5.4343 0 1.8557-6.0745 6.8335-13.192 10.811-7.5995 4.2463-77.722 38.418-142.31 69.349-54.424 26.064-50.594 24.299-83 38.258-13.75 5.923-28.15 12.29-32 14.15l-7 3.3808 4.25 0.3075c2.3375 0.1691 4.25 0.7471 4.25 1.2843 0 1.7942-15.304 10.813-34.5 20.331-21.394 10.608-36.434 16.508-44.098 17.299-4.6537 0.4803-5.2551 0.3169-5.8614-1.5935-0.3716-1.1708-1.2971-2.1287-2.0566-2.1287-3.4374 0-20.868 6.3984-56.378 20.695-48.647 19.585-55.395 22.05-92.283 33.704-29.881 9.4406-38.164 11.654-40.591 10.845zm58.018-26.297c2.0625-0.5728 3.75-1.2332 3.75-1.4677 0-1.0178-4.4552-9.4797-4.9911-9.4797-0.32589 0-2.5472 1.9916-4.9362 4.4259-6.5328 6.6564-3.9868 9.3442 6.1772 6.5215zm44.627-14.426c30.175-10.14 48.551-17.404 89.123-35.231 27.267-11.98 41.742-18.19 98-42.041 8.525-3.6142 24.95-11.054 36.5-16.532 11.55-5.4782 34.5-16.233 51-23.899 48.93-22.735 76.265-37.548 87.159-47.231 6.117-5.4377 7.5068-7.9711 6.2308-11.358-0.7744-2.0555-0.3359-2.4998 4.6375-4.6993l5.4927-2.4292-2.5612-5.8007c-1.4086-3.1904-4.4031-9.1757-6.6545-13.301-34.369-62.972-95.218-105.26-166.35-115.61-16.185-2.3555-45.715-2.3555-61.9 0-99.702 14.51-176.65 91.463-191.16 191.16-1.1719 8.0524-1.7392 18.147-1.7392 30.95 0 21.955 1.7242 36.056 6.8588 56.09 4.582 17.878 16.775 48.41 19.333 48.41 0.4451 0 12.163-3.8153 26.039-8.4784zm550.2-121.1c0.048-1.165 0.285-1.4019 0.6042-0.60417 0.2889 0.72187 0.2534 1.5844-0.079 1.9167-0.3323 0.3323-0.5687-0.2584-0.5253-1.3125zm1.971-6.1071c-0.027-0.65472 1.1313-4.4797 2.575-8.5 5.8875-16.395 11.924-25.027 20.562-29.404 6.5155-3.3016 6.103-2.29-0.6391 1.5674-8.5054 4.8663-12.931 11.454-19.162 28.527-1.8068 4.95-3.3075 8.4643-3.335 7.8096zm-774.74-108.31c1.349-4.4855 15.255-34.787 22.718-49.5 8.1183-16.007 24.552-44.5 25.666-44.5 0.27959 0-0.52002 1.6875-1.7769 3.75s-12.359 23.55-24.672 47.75c-12.312 24.2-22.183 43.325-21.935 42.5zm550.19-245.52c-22.572-6.9121-51.732-15.383-65.35-18.984-16.495-4.3619-13.629-4.4077 4.8537-0.0775 19.808 4.6408 37.403 9.6582 56.996 16.253 24.613 8.285 26.605 9.8835 3.5 2.8082z" fill="#fee9d8"/>
  <path d="m1009.5 1248.4c-40.673-3.376-77.231-15.969-110-37.89-10.876-7.2757-25.555-19.044-26.17-20.98-0.22244-0.701 364.5-155.79 374.73-159.34 2.328-0.8088-2.0465 32.812-6.5614 50.428-22.365 87.262-96.362 153.43-185.48 165.86-11.598 1.6176-37.342 2.6784-46.518 1.9167zm-186.36-125.12c-5.3816-10.703-12.236-29.408-15.633-42.66-5.1346-20.034-6.8588-34.134-6.8588-56.09 0-12.803 0.56726-22.898 1.7392-30.95 14.51-99.702 91.463-176.65 191.16-191.16 16.185-2.3555 45.715-2.3555 61.9 0 71.136 10.353 131.98 52.642 166.35 115.61 2.2514 4.125 5.2459 10.11 6.6545 13.301l2.5612 5.8007-5.4927 2.4292c-4.9734 2.1994-5.4119 2.6438-4.6375 4.6993 1.276 3.3869-0.1138 5.9203-6.2308 11.358-10.893 9.6834-38.229 24.497-87.159 47.231-16.5 7.6665-39.45 18.421-51 23.899-11.55 5.4781-27.975 12.917-36.5 16.532-56.258 23.851-70.733 30.06-98 42.041-40.572 17.826-58.948 25.09-89.123 35.231-13.876 4.6631-25.594 8.4784-26.039 8.4784s-2.1103-2.5875-3.7005-5.75z" fill="#0c1016"/>
  <path d="m64.791 1445.9c-15.331-2.2476-20.145-9.7525-14.094-21.973 2.9878-6.0339 17.63-21.218 32.815-34.03 40.763-34.392 117.37-81.082 243.49-148.4 38.27-20.428 47.18-26.355 88-58.53 10.175-8.0203 27.5-21.31 38.501-29.532 65.252-48.774 97.441-74.206 102.66-81.108 9.907-13.101 17.582-30.169 30.737-68.355 32.79-95.182 35.346-101.55 62.166-154.99 12.561-25.025 26.184-51.221 30.273-58.214 17.028-29.12 48.378-67.055 75.835-91.764 20.961-18.864 22.851-19.203 4.4138-0.79224-32.387 32.34-54.785 61.865-79.099 104.27-11.592 20.216-18.446 33.804-25.87 51.291-3.1031 7.3086-9.031 20.055-13.173 28.325-15.68 31.307-27.257 60.751-47.827 121.63-18.32 54.22-25.193 70.671-35.221 84.292-5.0187 6.8174-6.1046 7.6116-56.395 41.249-43.101 28.829-57.066 38.56-83.5 58.186-36.741 27.279-50.516 36.142-85.501 55.013-90.308 48.713-125.2 69.086-176.5 103.07-28.87 19.124-38.779 27.017-58.248 46.394-16.298 16.221-19.467 20.604-20.059 27.738-1.0778 12.997 7.5184 16.215 38.178 14.291 23.381-1.4673 39.755-4.4522 78.712-14.349 18.379-4.6693 39.717-9.9181 47.417-11.664 7.7-1.7461 23.45-6.014 35-9.4842 11.55-3.4703 28.875-8.3353 38.5-10.811 9.625-2.4758 25.375-6.9842 35-10.019 9.625-3.0345 29.875-9.1623 45-13.617 70.924-20.891 232.61-78.117 355.91-125.97 12.873-4.9962 23.543-8.9466 23.711-8.7788 0.38014 0.3801-59.74 25.659-68.617 28.851l-6.5 2.3377 5.5728 0.7058c12.393 1.5698 28.333 9.4956 72.497 36.047 68.065 40.921 107.48 60.071 160.43 77.94 11.275 3.805 18.925 6.624 17 6.2643-6.7844-1.2677-40.662-12.749-57.977-19.649-33.737-13.444-63.894-29.05-115.52-59.78-47.1-28.035-60.047-34.573-73.152-36.94-6.8377-1.2351-10.224-0.718-22.267 3.4-4.0804 1.3953-7.5659 2.3898-7.7458 2.21s4.4092-2.2658 10.198-4.6355c19.725-8.0746 9.9573-4.9649-20.57 6.5491-107.18 40.424-212.52 77.058-304.46 105.88-77.549 24.308-114.2 34.713-167.5 47.554-57.604 13.878-79.243 18.03-103.95 19.945-15.132 1.1727-20.043 1.166-28.26-0.039zm896.02-63.602c0.72187-0.2889 1.5844-0.2534 1.9167 0.079 0.33229 0.3323-0.25834 0.5687-1.3125 0.5253-1.165-0.048-1.4019-0.285-0.60417-0.6042zm-130.08-127.85c-2.0527-1.3948-3.7321-2.7512-3.7321-3.0141 0-0.263 1.8 0.713 4 2.1689 3.4932 2.3117 4.6738 3.3813 3.7321 3.3813-0.14732 0-1.9473-1.1412-4-2.5361zm-25.028-18.003c-9.1874-6.8967-16.704-12.802-16.704-13.122 0-0.696-0.0416-0.7258 18.137 13.028 14.904 11.276 16.597 12.633 15.767 12.633-0.27261 0-8.0126-5.6428-17.2-12.54zm-190.7-12.388c-0.8545-0.5937-7.2378-1.0488-14.833-1.0575-10.203-0.012-13.241-0.3087-12.942-1.2653 0.21538-0.6875 4.8654-4.6114 10.333-8.7198s11.767-9.347 13.997-11.641c3.5721-3.6746 8.0244-5.8474 37.377-18.24 18.327-7.7379 33.507-14.254 33.733-14.48 0.22622-0.2262 1.0714-10.032 1.8783-21.79 3.7806-55.096 9.1962-96.045 16.556-125.18 5.6638-22.424 20.893-65.219 32.622-91.671 5.6457-12.732 19.795-40.025 20.75-40.025 0.19033 0-2.4984 5.7375-5.9749 12.75-26.812 54.084-45.237 123.79-52.93 200.25-1.8591 18.478-4.789 61.111-4.2377 61.662 0.21377 0.2138 14.823-5.6978 32.464-13.137s32.33-13.526 32.641-13.526c1.887 0-0.0246 5.9783-3.4342 10.74-4.0624 5.6731-5.3815 11.633-2.7676 12.504 2.4264 0.8088 10.709-1.4042 40.591-10.845 36.888-11.654 43.636-14.119 92.283-33.704 35.51-14.297 52.941-20.695 56.378-20.695 0.75955 0 1.685 0.9579 2.0566 2.1287 0.60631 1.9104 1.2077 2.0738 5.8614 1.5935 7.6639-0.7909 22.703-6.6908 44.098-17.299 19.196-9.5185 34.5-18.537 34.5-20.331 0-0.5372-1.9125-1.1152-4.25-1.2843l-4.25-0.3075 7-3.3808c3.85-1.8594 18.25-8.2269 32-14.15 32.406-13.959 28.576-12.194 83-38.258 64.585-30.931 134.71-65.103 142.31-69.349 7.1178-3.9771 13.192-8.955 13.192-10.811 0-2.3607-3.5215-4.3387-9-5.0552-3.025-0.39566-6.0656-1.0262-6.7568-1.4013-0.7029-0.38139 15.824-7.8753 37.5-17.004 21.316-8.977 39.081-16.617 39.478-16.978 0.7681-0.69846-21.838-20.594-41.721-36.719-60.997-49.468-122.65-85.641-180-105.61-16.317-5.6808-12.699-5.4069 5.5 0.4164 30.911 9.8909 62.97 24.259 97.5 43.696 37.074 20.869 68.265 43.362 110.79 79.892 11.3 9.7071 17.348 14.265 18.5 13.941 0.9413-0.26443 45.586-19.057 99.212-41.761 59.794-25.316 99.434-41.568 102.5-42.024 2.75-0.4095 6.35-1.0478 8-1.4183 2.2865-0.51353 1.6918 0.0837-2.5 2.5111-20.32 11.767-58 40.349-58 43.996 0 0.49895 1.4625 1.2876 3.25 1.7527l3.25 0.84548-8 4.723c-4.4 2.5976-34.111 17.754-66.024 33.68-31.913 15.927-64.538 32.596-72.5 37.044-20.427 11.41-27.441 14.86-64.577 31.766-18.094 8.2371-40.099 18.432-48.899 22.655s-27.406 12.832-41.347 19.13c-40.55 18.32-64.311 30.696-98.852 51.488-27.403 16.495-46.92 25.502-60.301 27.828-14.439 2.5103-17.988 3.449-29.5 7.8047-6.6 2.4971-25.05 10.139-41 16.982-49.125 21.076-68.391 28.532-110.5 42.765-76.915 25.998-95.252 32.654-139 50.455-57.855 23.542-75.324 29.283-99 32.537-16.397 2.2536-26.233 2.8091-28 1.5813zm719.37-12.823c22.704-45.324 38.668-92.591 54.123-160.25 12.95-56.692 16.845-70.741 23.014-83 4.1141-8.1759 5.132-9.066 15.389-13.456 9.8133-4.2003 11.802-4.2017 3.0152-2e-3 -15.79 7.5468-21.13 19.819-35.878 82.458-15.89 67.488-26.394 102.17-42.171 139.25-5.9917 14.08-22.476 47.754-23.377 47.754-0.2759 0 2.3724-5.7375 5.8852-12.75zm-11.294-169.83c0.048-1.165 0.285-1.4019 0.6042-0.6042 0.2889 0.7219 0.2534 1.5844-0.079 1.9167-0.3323 0.3323-0.5687-0.2584-0.5253-1.3125zm1-6c0.048-1.165 0.285-1.4019 0.6042-0.6042 0.2889 0.7219 0.2534 1.5844-0.079 1.9167-0.3323 0.3323-0.5687-0.2584-0.5253-1.3125zm1-6c0.048-1.165 0.285-1.4019 0.6042-0.6042 0.2889 0.7219 0.2534 1.5844-0.079 1.9167-0.3323 0.3323-0.5687-0.2584-0.5253-1.3125zm1.079-7.4167c0-1.375 0.227-1.9375 0.5044-1.25s0.2774 1.8125 0 2.5-0.5044 0.125-0.5044-1.25zm1-7c0-1.375 0.227-1.9375 0.5044-1.25s0.2774 1.8125 0 2.5-0.5044 0.125-0.5044-1.25zm1.037-8.5c0.02-1.65 0.2445-2.2039 0.4981-1.231 0.2535 0.973 0.2369 2.323-0.037 3-0.2739 0.6771-0.4813-0.119-0.461-1.769zm0.963-8.5c0-1.375 0.227-1.9375 0.5044-1.25s0.2774 1.8125 0 2.5-0.5044 0.125-0.5044-1.25zm15.842-9.2159c0.275-0.29403 22.325-10.778 49-23.297 119.16-55.925 211.75-101.68 303-149.74 117.74-62.011 224.18-127.91 258.73-160.19 10.341-9.6614 11.938-11.929 14.294-20.291 1.8324-6.5039 1.8369-6.856 0.1186-9.261-4.9003-6.8586-14.527-7.5896-40.712-3.0913-21.113 3.627-25.78 4.719-49.45 11.571-20.44 5.9168-23.43 6.4002-24.374 3.9398-0.534-1.3915-2.671-1.5037-17.857-0.93716-19.06 0.71105-30.929 2.5629-54.861 8.559-22.135 5.5461-89.199 24.77-113.7 32.592-11.38 3.6334-25.187 7.9013-30.681 9.4842-11.978 3.4507-49.972 11.548-77.263 16.466-10.861 1.9573-28.747 5.2958-39.747 7.4188-23.062 4.451-38.628 6.6354-53.5 7.5078-12.88 0.75552-37.12 4.5495-54.447 8.5216-19.357 4.4376-26.828 3.944-48.553-3.2082-13.221-4.3527-30.157-11.584-64.23-27.426-50.666-23.557-66.533-30.081-121.77-50.067-57.704-20.878-90.628-29.219-135.5-34.326-18.025-2.0514-49.444-4.3188-68-4.9072l-19-0.60252 11-0.9972c15.172-1.3754 59.457-1.1611 74 0.35806 31.777 3.3194 56.558 8.4505 95.5 19.774 8.525 2.4789 23.825 6.9312 34 9.8941 40.775 11.873 63.731 21.274 133 54.464 48.912 23.436 69.27 30.939 84.106 30.995 2.5331 0.01 17.987-2.2286 34.341-4.9737 29.862-5.0123 58.724-8.9398 81.053-11.029 17.362-1.6248 75.079-9.5182 95.5-13.061 25.8-4.4753 35.144-6.8975 71-18.403 46.317-14.863 103.26-31.788 136-40.427 34.306-9.0509 89.823-19.811 109-21.126 6.875-0.47148 19.475-2.0239 28-3.4498 19.34-3.2349 37.309-4.2344 45.466-2.5289 4.4755 0.93575 6.8127 2.0944 9.3567 4.6384 3.9284 3.9284 3.863 5.0036-0.9339 15.362-11.444 24.712-93.652 80.615-226.89 154.29-96.36 53.282-317.64 162.53-398.5 196.74-27.166 11.494-27.181 11.5-26.5 10.772zm-565-310.16c0-0.20765 0.7875-0.99515 1.75-1.75 1.5861-1.2439 1.6214-1.2085 0.37756 0.37756-1.3064 1.6658-2.1276 2.1955-2.1276 1.3724zm169.75-70.285c0.6875-0.27741 1.8125-0.27741 2.5 0s0.125 0.50439-1.25 0.50439-1.9375-0.22698-1.25-0.50439z" fill="#fec9a7"/>
  <path d="m91.239 1434c-9.6819-1.4122-13.745-5.8654-13.046-14.297 0.59158-7.1337 3.7614-11.517 20.059-27.738 19.469-19.377 29.378-27.27 58.248-46.394 51.303-33.985 86.191-54.358 176.5-103.07 34.985-18.871 48.76-27.734 85.501-55.013 26.434-19.626 40.399-29.358 83.5-58.186 50.291-33.637 51.376-34.432 56.395-41.249 10.028-13.622 16.902-30.072 35.221-84.292 20.569-60.879 32.147-90.322 47.827-121.63 4.142-8.2703 10.07-21.017 13.173-28.325 32.456-76.442 92.395-154.54 145.32-189.34 39.583-26.029 84.807-44.254 131.56-53.018 13.592-2.5478 17.16-2.8174 38-2.8715 21.178-0.0549 50.796 1.7292 74.5 4.4879 45.096 5.2482 77.493 13.475 135 34.283 55.238 19.986 71.104 26.51 121.77 50.067 34.072 15.842 51.008 23.074 64.23 27.426 21.724 7.1522 29.196 7.6458 48.553 3.2082 17.326-3.9721 41.567-7.7661 54.447-8.5216 14.872-0.87237 30.438-3.0568 53.5-7.5078 11-2.123 28.886-5.4615 39.747-7.4188 27.291-4.9183 65.286-13.016 77.263-16.466 5.4942-1.5828 19.301-5.8507 30.681-9.4842 24.499-7.8219 91.563-27.046 113.7-32.592 23.931-5.9961 35.801-7.848 54.861-8.559 15.186-0.56654 17.323-0.45438 17.857 0.93716 0.9441 2.4603 3.9342 1.977 24.374-3.9398 23.67-6.8518 28.337-7.9438 49.45-11.571 26.185-4.4983 35.812-3.7674 40.712 3.0913 1.7183 2.4049 1.7138 2.7571-0.1186 9.261-2.3559 8.362-3.9534 10.63-14.294 20.291-34.554 32.284-140.99 98.182-258.73 160.19-64.282 33.855-170.15 86.909-233 116.77-29.686 14.102-118.43 55.73-125.64 58.936l-6.143 2.7309-0.6673 6.6614c-7.3964 73.83-29.946 143.16-62.988 193.66-7.0222 10.733-21.646 29.674-25.136 32.558-0.96 0.7931 1.5186-2.608 5.5079-7.558 40.396-50.124 68.477-123.48 79.01-206.4 1.1461-9.0226 1.8553-16.633 1.5761-16.912-0.2792-0.27922-1.747 0.0657-3.2619 0.76651-4.5959 2.1262-80.644 34.225-82.254 34.718-4.6225 1.4161 8.0904-4.5225 47-21.955 23.925-10.719 51.825-23.407 62-28.195 10.175-4.7883 32-15.02 48.5-22.738s49.35-23.479 73-35.025c23.65-11.546 59.425-29.007 79.5-38.802 82.48-40.242 166.64-85.707 259.5-140.19 53.854-31.596 102.49-64.95 124.27-85.224l5.6448-5.2542 0.2096-8.7083c0.2091-8.6838 0.2013-8.7134-2.7754-10.524-6.5477-3.9819-17.652-3.4357-39.723 1.9538-39.537 9.6545-92.165 33.646-110.63 50.431l-4 3.6365 8.2589-0.64308c10.028-0.78087 10.052-0.3458 0.4473 8.2138-15.094 13.451-25.651 20.669-53.706 36.72-9.35 5.3492-19.163 11.303-21.807 13.231-4.1979 3.0606-4.7682 3.902-4.5 6.6384 0.266 2.714-0.3225 3.611-4.3947 6.6988-4.4699 3.3894-23.53 14.404-45.279 26.167-7.3284 3.9635-12.178 7.5244-18.25 13.399-4.5479 4.4004-8.269 8.5629-8.269 9.25 0 0.79076 1.468 1.2492 4 1.2492 2.2 0 4 0.47313 4 1.0514 0 1.7838-23.781 12.689-35.958 16.489-26.853 8.3804-34.313 10.942-48.542 16.667-8.25 3.3194-25.575 11.102-38.5 17.294s-31.375 14.749-41 19.015c-21.385 9.4789-45.494 21.508-83 41.413-37.828 20.076-48.883 25.457-127.5 62.068-36.85 17.16-78.7 37.194-93 44.519-32.489 16.642-105.01 51.577-123.28 59.385-14.62 6.2493-42.795 16.704-52.723 19.563-6.8544 1.9741-77.959 26.748-99 34.492-7.7 2.8343-27.95 10.939-45 18.011-31.875 13.22-49.202 19.728-91.642 34.42-24.625 8.5243-51.494 18.82-92.553 35.464-12.208 4.9486-36.508 14.023-54 20.166-17.492 6.1425-45.529 16.258-62.304 22.479-30.558 11.332-40.246 14.197-43.993 13.008-2.8432-0.9024-2.5139-2.769 1.5747-8.9269 2.1965-3.3081 3.4533-6.2991 3.25-7.7346-0.30716-2.1693-0.77059-2.334-6.3314-2.2505-4.9011 0.074-13.146 2.4913-45.018 13.201-21.46 7.2111-41.035 13.425-43.5 13.808l-4.4819 0.6969 2-2.2682c1.1-1.2475 5.7125-4.7175 10.25-7.7111 7.7759-5.1301 9.8716-7.3199 7-7.3141-4.864 0.01-42.529 12.089-71.997 23.089-37.394 13.959-62.538 24.829-99.253 42.906-26.4 12.998-49.414 22.724-60.903 25.737-5.8775 1.5416-6.4627 1.5433-7.9819 0.024-0.90169-0.9017-3.6646-1.9431-6.1398-2.3143-2.4752-0.3712-4.7464-1.073-5.0471-1.5595-0.3007-0.4865-3.6702-0.8846-7.4877-0.8846-3.9152 0-6.941-0.4317-6.941-0.9903 0-2.0903 10.424-8.3728 35-21.095 14.025-7.2603 35.625-18.517 48-25.015 26.288-13.804 46.331-23.233 79.5-37.399 28.964-12.371 41.353-16.502 51.677-17.232 7.0788-0.5008 8.0415-0.3294 12.357 2.1998 4.2648 2.4994 5.248 2.6821 11.073 2.0583 7.5184-0.8051 7.981-0.017 3.5666 6.0746-2.7874 3.8465-7.213 7.6744-14.136 12.226-1.946 1.2796-2.8631 2.1064-2.0381 1.8373s48.525-20.376 106-44.681c122.9-51.971 109.31-46.423 108.08-44.126-0.87722 1.6391-4.1945 4.3685-21.169 17.417-2.6996 2.0752-4.9084 4.189-4.9084 4.6972 0 0.8125 13.405 1.6589 35.5 2.2414 8.2899 0.2185 28.939-2.5116 39.5-5.2225 18.241-4.6823 35.924-11.1 80-29.035 43.748-17.801 62.085-24.457 139-50.455 42.109-14.233 61.375-21.689 110.5-42.765 15.95-6.8428 34.4-14.485 41-16.982 11.512-4.3557 15.061-5.2944 29.5-7.8047 13.381-2.3262 32.898-11.333 60.301-27.828 34.541-20.791 58.302-33.168 98.852-51.488 13.941-6.2984 32.547-14.907 41.347-19.13s30.805-14.418 48.899-22.655c37.137-16.906 44.15-20.356 64.577-31.766 7.962-4.4475 40.587-21.117 72.5-37.044 31.913-15.927 61.624-31.083 66.024-33.68l8-4.723-3.25-0.84548c-1.7875-0.46502-3.25-1.2537-3.25-1.7527 0-3.644 37.588-32.16 58-44.001 3.025-1.7548 4.375-2.919 3-2.5869-1.375 0.33206-4.7244 0.8902-7.4432 1.2403-3.1912 0.41096-31.189 11.725-78.997 31.924l-74.054 31.288-4.5028-2.5946c-7.7609-4.4721-32.607-21.301-56.003-37.932-30.098-21.395-49.983-34.979-77.129-52.687-20.035-13.069-27.7-18.687-25.498-18.687 1.3916 0 14.497 6.9231 33.626 17.764 4.4345 2.5131 4.4709 2.5167 2.5 0.24695-2.7263-3.1396-1.8552-2.7686 17.611 7.5018 18.281 9.6452 32.218 17.783 59.866 34.956 27.387 17.012 48.677 27.531 55.72 27.531h2.6515l-4.8486-5.2256 5.5 0.76289c3.025 0.41958 9.0494 0.73419 13.388 0.69913 7.4892-0.0605 8.4739-0.34882 19.5-5.7087 23.613-11.479 65.826-33.776 72.566-38.33 6.7873-4.5861 8.3635-7.015 4.1436-6.3852-1.1532 0.17211-12.897 3.8466-26.097 8.1654s-28.5 9.0936-34 10.611-14.275 4.5333-19.5 6.7031c-14.495 6.0194-18.418 6.9251-26.915 6.2146-18.799-1.5718-39.997-11.832-103.59-50.135-24.75-14.908-52.762-31.682-62.25-37.274-9.4875-5.5923-17.25-10.302-17.25-10.465 0-0.16373 2.5616 0.0499 5.6924 0.47479 7.3809 1.0016 28.076 11.291 67.308 33.465 60.974 34.462 89.443 46.09 107.89 44.069 3.084-0.33788 10.689-2.4185 16.9-4.6236 6.2112-2.2051 16.746-5.386 23.411-7.0686 24.629-6.2178 45.204-13.946 99.796-37.484 37.298-16.082 58.338-24.214 93.486-36.136 50.064-16.98 102.67-37.322 117.95-45.608 18.75-10.168-2.5665-6.9623-70.938 10.667-15.95 4.1125-39.575 10.67-52.5 14.573-12.925 3.9027-31.15 8.9259-40.5 11.163s-25.775 6.3062-36.5 9.0429c-10.725 2.7367-32.548 8.097-48.495 11.912-15.947 3.8147-38.897 9.9165-51 13.56-12.103 3.643-27.855 7.6385-35.005 8.8787-7.15 1.2402-18.041 3.3071-24.202 4.593l-11.202 2.338-3.1305-2.3145c-1.914-1.415-8.2477-3.5884-16.298-5.5925-21.692-5.4002-35.908-11.246-90.667-37.285-45.15-21.469-50.396-23.696-99.485-42.231-32.115-12.126-46.968-17.148-70.84-23.953-9.8038-2.7946-18.607-5.4998-19.563-6.0114-5.6786-3.0391-44.961-10.686-69.606-13.55-39.486-4.5886-106.06 1.1458-145 12.489-19.629 5.7182-44.851 15.545-60.717 23.657-27.839 14.234-62.424 41.444-88.697 69.785-10.878 11.734-19.359 22.773-18.096 23.553 0.49404 0.30534-3.0162 6.0367-7.8006 12.736-9.3272 13.061-18.918 28.069-24.135 37.768l-3.2275 6 3.7035-4c3.1935-3.4491 3.6026-3.6557 2.9706-1.5-0.69073 2.3562-0.51412 2.2986 3.0696-1 3.5796-3.2948 3.699-3.3339 2.0368-0.66585-12.727 20.429-27.361 47.247-26.339 48.269 0.216 0.21601 3.8829-5.0064 8.1486-11.605 4.2657-6.599 7.9683-11.998 8.2279-11.998 0.25961 0-2.0467 4.6125-5.1252 10.25-14.184 25.974-34.523 68.993-34.521 73.014 4.2e-4 0.67999 2.9351-4.7914 6.5216-12.159 3.5864-7.3673 6.7378-13.178 7.003-12.913 0.26521 0.2652-1.5445 5.8241-4.0216 12.353-2.4771 6.529-4.4805 12.115-4.4521 12.413s2.751-4.633 6.0503-10.958c7.1612-13.729 7.0535-13.271-1.8812 8-3.8119 9.075-10.434 25.85-14.715 37.278s-7.9296 20.632-8.1074 20.454c-0.1778-0.1778 1.013-4.7741 2.6463-10.214 2.1383-7.1222 2.6472-10.09 1.8181-10.602-0.86687-0.53575-0.8575-1.8791 0.0379-5.4351 0.65415-2.5979 1.0425-4.8703 0.86298-5.0498-0.46372-0.46372-12.129 24.909-17.732 38.57-2.5945 6.325-8.8933 23.425-13.997 38-12.264 35.021-16.744 46.316-26.087 65.764-12.877 26.806-19.799 35.479-34.947 43.782-4.675 2.5626-14.203 8.4058-21.174 12.985-6.9707 4.5791-21.775 13.358-32.898 19.508-26.692 14.758-32.473 18.314-67.07 41.247-46.915 31.098-52.677 34.532-126.36 75.283-57.496 31.8-78.614 44.221-112.43 66.128-39.203 25.4-46.456 31.231-55.845 44.897-2.2312 3.2475-8.1813 9.9545-13.223 14.904-11.862 11.647-15.369 16.612-14.711 20.826 0.50869 3.2612 2.6024 9.2064 4.0231 11.424 0.5953 0.9291 5.728 1.2486 19.992 1.2446 31.215-0.01 48.384-3.1997 96.611-17.955 27.99-8.5638 34.495-10.335 53.462-14.555 6.535-1.4541 20.71-5.4988 31.5-8.9884 23.511-7.6034 24.915-7.982 39-10.518 6.072-1.0933 18.37-4.2534 27.329-7.0223 8.9589-2.769 26.639-7.7427 39.289-11.053 33.05-8.6483 100.5-31.147 170.5-56.872 116.01-42.636 149.86-55.167 167.5-62.013 30.962-12.019 122.99-49.169 163.39-65.955 20.013-8.3165 36.547-14.961 36.743-14.766 0.34255 0.3426-126.74 54.288-154.96 65.782l-13.831 5.6324 13.831 10.496c26.543 20.143 48.786 34.014 77.938 48.603 43.558 21.798 85.218 34.34 131.39 39.558 1.925 0.2175-0.693 0.2126-5.8178-0.011-22.368-0.9758-68.675-11.426-92.182-20.802-25.26-10.076-57.347-26.836-81-42.31-20.039-13.11-46.49-33.421-45.202-34.709 0.38634-0.3866-1.7726 0.2776-4.7976 1.4759-65.218 25.835-214.34 80.792-282 103.93-52.634 17.997-74.97 25.25-105 34.095-15.125 4.4551-35.375 10.583-45 13.617-9.625 3.0344-25.375 7.5428-35 10.019-9.625 2.4757-26.95 7.3407-38.5 10.811-11.55 3.4702-27.3 7.7381-35 9.4842-7.7 1.746-29.038 6.9948-47.417 11.664-38.705 9.8328-55.271 12.869-78.124 14.319-18.033 1.1441-18.126 1.1442-25.72 0.037zm944.76-39.573c-42.035-3.6604-60.133-7.1938-94.704-18.49-51.265-16.75-94.431-37.628-162.73-78.702-42.95-25.831-63.743-36.124-73.246-36.259l-2.8237-0.04 2.8648-1.5521c2.6548-1.4382 3.3147-1.3912 9 0.6413 10.614 3.7947 30.901 14.919 69.635 38.184 20.625 12.388 44.372 26.209 52.771 30.714 51.538 27.637 104.02 46.513 158.44 56.987 26.725 5.1435 41.347 6.4765 71.79 6.5445 15.125 0.034 25.025 0.3657 22 0.7376-6.8025 0.8363-46.856 1.7686-53 1.2336zm60.25-3.0991c0.9625-0.2516 2.5375-0.2516 3.5 0 0.9625 0.2515 0.175 0.4573-1.75 0.4573s-2.7125-0.2058-1.75-0.4573zm7.5-0.973c0.6875-0.2774 1.8125-0.2774 2.5 0s0.125 0.5044-1.25 0.5044-1.9375-0.227-1.25-0.5044zm127.25-53.715c0-0.2076 0.7875-0.9951 1.75-1.75 1.5861-1.2438 1.6214-1.2085 0.3776 0.3776-1.3064 1.6657-2.1276 2.1955-2.1276 1.3724zm9.4569-7.6224c41.365-36.981 64.915-67.401 91.47-118.15 23.794-45.474 38.687-90.18 57.083-171.35 13.092-57.763 18.998-76.815 24.605-79.37 3.4354-1.5652 3.9491-1.4173 2.153 0.62014-2.6778 3.0376-7.418 13.404-10.631 23.25-3.301 10.115-7.6126 27.475-16.641 67-15.726 68.845-31.302 114.66-55.244 162.5-22.102 44.161-50.604 80.881-85.404 110.03-11.089 9.2875-14.404 11.742-7.39 5.4715zm-387.48-16.621c-12.911-6.3918-27.749-13.509-32.974-15.817-5.225-2.3075-15.125-7.5787-22-11.714-12.106-7.2812-61.1-37.614-61.661-38.176-0.1527-0.1527 3.7205-1.9706 8.6071-4.0398l8.8847-3.7622 9.3347 7.8435c26.082 21.916 56.075 42.433 94.049 64.335 10.607 6.1177 19.713 11.534 20.235 12.037 2.4034 2.3128-2.5754 0.1348-24.476-10.707zm381.03-75.756c0-0.2076 0.7875-0.9951 1.75-1.75 1.5861-1.2438 1.6214-1.2085 0.3776 0.3776-1.3064 1.6657-2.1276 2.1955-2.1276 1.3724zm-597.5-78.372c0.2119-14.773 0.93827-23.311 3.4242-40.25 7.2437-49.359 17.283-103.05 24.681-132 6.1771-24.171 16.992-57.409 20.414-62.736 1.3945-2.1711 1.597-2.863-5.3967 18.434-8.2826 25.222-18.274 62.842-17.393 65.486 0.17384 0.5216 1.5831-2.9422 3.1316-7.6972 1.5485-4.755 3.0227-8.4384 3.2758-8.1852 0.25317 0.25317-1.3474 9.8512-3.5568 21.329-5.4973 28.558-8.1085 44.531-14.595 89.277-3.0622 21.125-6.66 44.3-7.9952 51.5-2.2654 12.216-5.1164 23.591-5.9128 23.591-0.19047 0-0.22528-8.4375-0.0774-18.75zm37.05 5.5023c3.5567-66.393 6.5482-95.4 13.587-131.75 8.3922-43.34 24.115-93.668 31.097-99.543 1.6092-1.3541 6.1983-8.4233 10.198-15.709 14.264-25.984 36.645-59.461 53.973-80.729 19.76-24.254 61.493-58.176 92.845-75.468 9.8707-5.4441 8.2494-3.6647-2.1067 2.3122-26.344 15.204-53.209 38.391-76.902 66.375-21.588 25.497-47.709 67.549-62.249 100.22-11.882 26.693-27.154 69.522-32.893 92.243-7.0847 28.05-12.984 71.8-16.086 119.3-1.5267 23.379-2.0465 27.795-3.3346 28.33-0.64842 0.2689-2.8544 1.2058-4.9023 2.082l-3.7234 1.5931zm286.45-12.752c0.825-0.5332 1.95-0.9694 2.5-0.9694s0.325 0.4362-0.5 0.9694-1.95 0.9694-2.5 0.9694-0.325-0.4362 0.5-0.9694zm7-3c0.825-0.5332 1.95-0.9694 2.5-0.9694s0.325 0.4362-0.5 0.9694-1.95 0.9694-2.5 0.9694-0.325-0.4362 0.5-0.9694zm5-2c0.825-0.5332 1.95-0.9694 2.5-0.9694s0.325 0.4362-0.5 0.9694-1.95 0.9694-2.5 0.9694-0.325-0.4362 0.5-0.9694zm385.53-82c2.3933-18.079 3.7407-31.314 5.4466-53.5 1.0996-14.3 2.0069-26.9 2.0162-28 0.016-1.8861 2.4014-3.1168 18.003-9.2879 0.8722-0.34503-10.699 57.861-15.166 76.288-1.7332 7.15-3.3433 12.435-3.5779 11.744-0.2346-0.691-0.8382-1.0019-1.3412-0.691s-0.9422-0.2488-0.976-1.2438c-0.034-0.9949-1.1428 0.441-2.4645 3.191-2.2999 4.7853-2.3833 4.8497-1.9398 1.5zm-127.53-27c0.825-0.5332 1.95-0.9694 2.5-0.9694s0.325 0.4362-0.5 0.9694-1.95 0.9694-2.5 0.9694-0.325-0.4362 0.5-0.9694zm8-3.5c1.375-0.786 2.95-1.4291 3.5-1.4291s-0.125 0.6431-1.5 1.4291-2.95 1.4291-3.5 1.4291 0.125-0.6431 1.5-1.4291zm114.5-164.12c-40.282-35.327-77.684-62.479-115-83.485-44.949-25.302-82.562-40.816-122.5-50.528-44.868-10.91-58.829-12.799-94.5-12.787-30.616 0.0103-44.017 1.5607-68.42 7.9154-7.3808 1.922-13.581 3.3331-13.779 3.1356-1.0757-1.0757 32.388-9.6017 47.698-12.153 5.225-0.87058 11.975-2.323 15-3.2275 6.1167-1.829 29.829-2.3163 51.5-1.0582 11.316 0.6569 11.743 0.61488 7.5-0.73685l-4.5-1.4335 7.5 0.51104c25.648 1.7476 92.392 20.7 126.5 35.922 54.396 24.272 101.46 55.663 171.72 114.54l12.53 10.5-3.1278 1.7081c-1.7203 0.93945-3.8028 1.7062-4.6278 1.704-0.825-2e-3 -6.9-4.7399-13.5-10.528zm-75.5-147.7c-10.207-4.6305-45.88-23.248-47.45-24.763-3.2949-3.1811 12.727 2.7323 27.95 10.316 11.323 5.6409 27.725 15.704 29.025 17.808 0.8368 1.3539 0.9717 1.4015-9.5254-3.3606z" fill="#dd5fb4"/>
  <path d="m1e3 1276.4c-42.533-5.0663-80.965-18.649-113.5-40.113-19.143-12.629-43.708-33.458-41.758-35.408 0.44918-0.4492 3.4903-1.9044 6.758-3.2338l5.9413-2.4172 8.0294 7.0871c29.376 25.928 62.653 43.644 99.922 53.196 22.075 5.6576 33.185 6.9673 59.108 6.9673 25.922 0 37.033-1.3097 59.108-6.9673 101.23-25.944 173.78-114.7 179.07-219.07 0.7053-13.916 0.056-12.771 9.3196-16.423l5.2906-2.0854-0.5637 17.792c-1.6537 52.193-21.268 104.78-54.752 146.79-33.381 41.884-82.913 73.803-135.03 87.013-21.743 5.5117-31.791 6.7165-58.448 7.0089-13.75 0.1508-26.575 0.087-28.5-0.1428zm-201.67-141.95c-0.39302-1.0243 0.91343-3.1204 3.7396-6 2.389-2.4343 4.6103-4.4259 4.9362-4.4259 0.53591 0 4.9911 8.4619 4.9911 9.4797 0 0.7167-7.3271 2.5088-10.281 2.5147-1.6121 0-3.0353-0.6562-3.3854-1.5685zm-11.292-23.117c-5.3069-14.89-9.3862-30.304-12.256-46.308-1.9595-10.928-2.2442-15.96-2.2633-40.001-0.0238-29.892 0.79657-37.591 6.4815-60.827 11.134-45.511 35.872-88.582 69.623-121.22 37.677-36.436 84.179-59.554 138.05-68.627 15.551-2.6195 60.104-2.6195 75.655 0 72.794 12.262 133.05 50.794 172.71 110.44 7.9943 12.024 19.67 33.285 21.414 38.997 0.6182 2.0238 0.021 2.5647-5.6302 5.0966l-6.3219 2.8325-5.0711-10.597c-30.121-62.943-87.77-110.15-155.82-127.59-22.075-5.6576-33.185-6.9673-59.108-6.9673-25.922 0-37.033 1.3097-59.108 6.9673-41.842 10.724-78.75 31.793-109.42 62.463-36.393 36.393-59.522 82.237-67.636 134.06-2.5176 16.081-2.5176 52.848 0 68.929 2.2833 14.585 7.536 35.114 12.107 47.317 1.956 5.2223 3.5563 9.9353 3.5563 10.473 0 0.8255-2.2948 1.9887-11.625 5.8924-0.68094 0.2849-2.7863-4.1907-5.3338-11.338z" fill="#7d56c1"/>
  <path d="m112.32 1420.8c-1.4207-2.2173-3.5144-8.1625-4.0231-11.424-0.6574-4.2148 2.8495-9.1794 14.711-20.826 5.0412-4.95 10.991-11.657 13.223-14.904 9.3894-13.666 16.642-19.497 55.845-44.897 33.813-21.907 54.931-34.329 112.43-66.128 73.681-40.752 79.444-44.185 126.36-75.283 34.597-22.933 40.378-26.489 67.07-41.247 11.123-6.1501 25.927-14.928 32.898-19.508 6.9707-4.5791 16.499-10.422 21.174-12.985 15.148-8.3034 22.07-16.976 34.947-43.782 9.3424-19.449 13.823-30.744 26.087-65.764 5.104-14.575 11.403-31.675 13.997-38 5.6037-13.661 17.269-39.033 17.732-38.57 0.17951 0.17951-0.20883 2.4519-0.86298 5.0498-0.8954 3.5559-0.90477 4.8993-0.0379 5.4351 0.82915 0.51245 0.32023 3.4803-1.8181 10.602-1.6333 5.44-2.8241 10.036-2.6463 10.214 0.1778 0.17779 3.8261-9.0266 8.1074-20.454s10.903-28.203 14.715-37.278c8.9348-21.271 9.0424-21.729 1.8812-8-3.2992 6.325-6.0219 11.256-6.0503 10.958s1.9751-5.8839 4.4521-12.413c2.4771-6.529 4.2868-12.088 4.0216-12.353-0.2652-0.2652-3.4166 5.5456-7.003 12.913-3.5865 7.3673-6.5212 12.839-6.5216 12.159-2e-3 -4.0202 20.337-47.04 34.521-73.014 3.0785-5.6375 5.3848-10.25 5.1252-10.25-0.25962 0-3.9622 5.3992-8.2279 11.998-4.2657 6.599-7.9326 11.821-8.1486 11.605-1.0221-1.0221 13.612-27.84 26.339-48.269 1.6622-2.668 1.5428-2.629-2.0368 0.66585-3.5837 3.2986-3.7603 3.3562-3.0696 1 0.63197-2.1557 0.22287-1.9491-2.9706 1.5l-3.7035 4 3.2275-6c5.2177-9.6997 14.808-24.707 24.135-37.768 4.7844-6.6996 8.2947-12.431 7.8006-12.736-2.2284-1.3772 19.251-26.002 37.508-43.001 29.6-27.56 60.45-48.015 90.5-60.005 40.216-16.046 61.944-21.163 112.32-26.453 19.058-2.0013 55.078-2.0143 72.188-0.0259 24.645 2.8639 63.927 10.511 69.606 13.55 0.956 0.51164 9.7594 3.2168 19.563 6.0114 23.872 6.8048 38.725 11.827 70.84 23.953 49.089 18.535 54.336 20.762 99.485 42.231 54.759 26.038 68.975 31.885 90.667 37.285 8.0501 2.0041 14.384 4.1775 16.298 5.5925l3.1305 2.3145 11.202-2.338c6.1612-1.2859 17.052-3.3528 24.202-4.593 7.15-1.2402 22.902-5.2357 35.005-8.8787 12.103-3.6431 35.053-9.7448 51-13.56 15.947-3.8147 37.77-9.175 48.495-11.912 10.725-2.7367 27.15-6.806 36.5-9.0429s27.575-7.2601 40.5-11.163c41.091-12.407 109.83-29.497 123.39-30.675 8.6423-0.75099 8.6571 0.76903 0.053 5.4347-15.28 8.2861-67.888 28.628-117.95 45.608-35.148 11.921-56.188 20.054-93.486 36.136-54.592 23.538-75.167 31.266-99.796 37.484-6.665 1.6827-17.2 4.8636-23.411 7.0686-6.2111 2.2051-13.816 4.2857-16.9 4.6236-18.45 2.0214-46.919-9.6069-107.89-44.069-39.232-22.174-59.927-32.463-67.308-33.465-3.1308-0.42486-5.6924-0.63852-5.6924-0.47479 0 0.16372 7.7625 4.8732 17.25 10.465 9.4875 5.5923 37.5 22.366 62.25 37.274 63.588 38.303 84.786 48.563 103.59 50.135 8.4971 0.71045 12.42-0.19527 26.915-6.2146 5.225-2.1698 14-5.1862 19.5-6.7031s20.8-6.2917 34-10.611 24.944-7.9933 26.097-8.1654c4.2199-0.62981 2.6437 1.7991-4.1436 6.3852-6.7398 4.554-48.952 26.851-72.566 38.33-11.026 5.3599-12.011 5.6482-19.5 5.7087-4.3381 0.0351-10.362-0.27955-13.388-0.69913l-5.5-0.76289 4.8486 5.2256h-2.6515c-7.0434 0-28.333-10.519-55.72-27.531-27.648-17.174-41.584-25.311-59.866-34.956-19.466-10.27-20.337-10.641-17.611-7.5018 1.9709 2.2697 1.9345 2.2661-2.5-0.24695-18.965-10.748-32.234-17.764-33.594-17.764-2.1207 0 4.3072 4.8158 21.094 15.804 29.948 19.603 47.427 31.443 69.5 47.08 38.154 27.029 47.471 33.454 59.772 41.221 6.7499 4.2618 11.925 7.9585 11.5 8.2147-0.4249 0.25623-9.5475 4.1622-20.272 8.68s-19.785 8.3853-20.134 8.5945c-0.3488 0.20922-6.8738-4.8614-14.5-11.268-68.859-57.848-116.56-89.637-170.86-113.87-14.473-6.458-46.584-17.518-72.505-24.973-15.678-4.5092-44.118-10.275-54-10.949l-7.5-0.51104 4.5 1.4335c4.2434 1.3517 3.8156 1.3938-7.5 0.73685-21.698-1.2596-45.384-0.77118-51.5 1.062-3.025 0.90663-9.9907 2.3942-15.479 3.3058-42.091 6.9907-92.329 26.501-127.55 49.532-29.1 19.031-59.369 45.035-75.571 64.922-17.328 21.268-39.709 54.745-53.973 80.729-3.9997 7.2861-8.5888 14.355-10.198 15.709-6.6861 5.626-21.631 52.617-30.229 95.043-6.3624 31.398-10.266 64.091-12.538 105-0.8552 15.4-1.8726 30.843-2.261 34.319l-0.70606 6.3187-7.6386 3.3103-7.6386 3.3102 0.3951-3.629c1.5979-14.677 4.4987-36.579 4.8975-36.978 0.26654-0.2666 0.55664 7.5779 0.64466 17.432 0.088 9.8542 0.33074 16.342 0.53937 14.417 0.20864-1.925 1.7257-17.225 3.3713-34 3.8519-39.266 7.7598-66.497 13.92-97 16.957-83.96 36.754-137.53 68.547-185.5 8.9468-13.498 16.919-23.81 14.43-18.664-2.1265 4.3958-0.36219 3.0978 6.0837-4.4756 7.9329-9.3206 14.203-15.096 14.716-13.556 0.21034 0.63102 7.3506-5.3628 15.867-13.32 28.93-27.028 55.258-45.695 87.365-61.942 48.492-24.539 84.935-33.799 133.5-33.923 37.391-0.0956 72.433 5.5975 119.19 19.364 26.122 7.6915 43.408 14.527 70.811 28.003 26.866 13.211 43.188 22.703 72.5 42.158 17.656 11.719 21.316 13.836 17 9.8342-6.2469-5.7923-4.4937-5.1767 7.8657 2.7618 12.013 7.7162 7.6624 3.4215-11.3-11.154-16.488-12.673-18.782-14.739-19.92-17.935-0.8988-2.5232 6.3841 1.636 25.81 14.74 8.242 5.5598 16.349 10.945 18.015 11.967l3.0294 1.8586-2.5-2.159c-7.0927-6.1254-36.155-27.381-51.76-37.858-20.518-13.774-36.258-23.343-58.74-35.711-8.8-4.8411-17.28-9.8634-18.844-11.161-3.3442-2.7733-18.022-9.8573-35.908-17.331-7.0135-2.9305-12.543-5.5368-12.288-5.7917 0.4138-0.41383 6.7133 0.88419 12.002 2.4729 1.4237 0.42773 1.0312-0.33853-1.4317-2.7952-3.1179-3.1098-3.2249-3.4093-1.319-3.69 7.0161-1.0332 71.828 24.19 107.14 41.698 8.9951 4.4593 17.022 8.1078 17.838 8.1078s5.1024 1.5912 9.5259 3.5361c4.4234 1.9449 8.2211 3.3575 8.4393 3.1393 0.6165-0.61642-14.656-10.513-30.658-19.865-49.947-29.193-111.81-55.984-156.76-67.883-6.7418-1.7849-12.096-3.4072-11.898-3.6053 0.7235-0.72351 22.757 3.92 46.45 9.7891 13.362 3.3099 25.056 5.8712 25.988 5.6918 2.205-0.42467-21.638-11.382-38.282-17.593-7.15-2.6682-12.894-5.363-12.764-5.9886 0.1323-0.63769-3.716-2.3234-8.7593-3.8369-4.9473-1.4848-8.7699-2.9248-8.4946-3.2001s-0.058-1.1782-0.7408-2.0064c-1.0914-1.3239-0.4434-1.4318 5.3646-0.89308 3.6333 0.33699 15.07 2.4368 25.414 4.6663 10.344 2.2295 18.997 3.8647 19.228 3.6338 0.6685-0.66851-26.088-9.1554-39.248-12.449-39.758-9.9502-79.162-13.717-134.62-12.871-25.571 0.39039-32.277 0.81094-42.378 2.6575-29.451 5.384-71.26 18.352-92 28.537-15.602 7.6615-29.5 16.136-29.5 17.987 0 0.73951-2.1375 3.1933-4.75 5.4528-3.9851 3.4467-4.2967 3.9466-1.9349 3.1041 1.5483-0.5523 3.0477-1.0042 3.3319-1.0042 0.28425 0-4.8075 4.1182-11.315 9.1516-15.87 12.275-28.267 23.061-37.332 32.48-4.125 4.2862-6.6 7.091-5.5 6.2329 6.6368-5.1772 5.0429-2.7996-9.4766 14.136-4.4797 5.225-10.921 13.1-14.315 17.5l-6.1698 8 9.304-8.5c10.83-9.8938 13.593-11.841 10.838-7.636-0.98173 1.4983-3.084 4.9273-4.6716 7.62-1.5877 2.6927-4.9393 7.9555-7.448 11.695-2.5088 3.7397-4.5614 7.6881-4.5614 8.7742 0 1.0861-4.728 9.4784-10.507 18.649-20.44 32.439-34.608 59.091-47.801 89.918-6.8805 16.077-19.744 51.638-19.653 54.331 0.0213 0.63127 1.5577-2.0022 3.4141-5.8522s3.414-6.6528 3.4612-6.2285c0.29864 2.6809-6.7314 37.874-11.39 57.019-3.0501 12.535-8.718 36.835-12.595 54-12.24 54.189-17.907 74.87-21.911 79.959-1.0185 1.2949-3.6487 6.2435-5.8447 10.997-3.982 8.619-11.049 20.21-11.84 19.42-0.22925-0.2292 1.3491-4.8605 3.5074-10.292 5.2345-13.172 9.3384-26.2 13.543-42.994 4.2954-17.155 8.8096-38.521 8.2558-39.075-0.22701-0.227-1.3726 2.8737-2.5458 6.8904-5.628 19.269-15.617 48.105-19.098 55.132-4.7437 9.5753-8.0272 13.985-12.826 17.226-2.0187 1.3632-5.4807 3.9416-7.6933 5.7298s-9.1877 5.4654-15.5 8.1715-22.727 10.593-36.477 17.526c-26.136 13.178-48.589 22.748-54.516 23.233-3.0886 0.2531-3.4574 0.03-3.2463-1.9644 0.21358-2.0173-0.20006-2.2497-4-2.2466-9.1277 0.01-49.004 15.594-75.313 29.438-18.756 9.8696-59.011 34.306-58.068 35.249 0.16405 0.1641 6.1133-2.3513 13.22-5.5896 14.892-6.7853 32.117-13.296 59.693-22.562 18.158-6.1014 24.729-7.6348 24.729-5.7707 0 0.6692-2.3951 4.2767-8.6526 13.033-3.3405 4.6743-0.52607 4.8156 15.691 0.7877 15.212-3.7782 17.962-3.9459 17.962-1.0956 0 0.8558 1.2284 2.0231 2.7298 2.594 5.3776 2.0445 19.724-1.689 47.27-12.301 36.467-14.05 39.498-14.305 15-1.2632-14.66 7.804-26 15.054-26 16.622 0 1.4661 3.7919 0.9606 16.639-2.2183 6.8314-1.6903 12.819-2.9278 13.305-2.75 0.71176 0.2602-119.47 51.543-123.35 52.632-0.60391 0.1698 0.49414-0.7302 2.4401-2 6.8425-4.4649 11.337-8.3471 14.136-12.209 4.4144-6.0919 3.9518-6.8797-3.5666-6.0746-5.8252 0.6238-6.8083 0.4411-11.073-2.0583-4.3158-2.5292-5.2785-2.7006-12.357-2.1998-10.324 0.7303-22.713 4.8617-51.677 17.232-33.169 14.167-53.212 23.596-79.5 37.399-12.375 6.4982-33.975 17.755-48 25.015-24.576 12.722-35 19.005-35 21.095 0 0.5586 3.0257 0.9903 6.941 0.9903 3.8175 0 7.187 0.3981 7.4877 0.8846 0.30069 0.4865 2.5719 1.1883 5.0471 1.5595 2.4752 0.3712 5.2381 1.4126 6.1398 2.3143 1.5192 1.5192 2.1044 1.5175 7.9819-0.024 11.488-3.0132 34.503-12.739 60.903-25.737 36.715-18.077 61.86-28.947 99.253-42.906 29.467-11 67.133-23.079 71.997-23.089 2.8716-0.01 0.77589 2.184-7 7.3141-4.5375 2.9936-9.15 6.4636-10.25 7.7111l-2 2.2682 4.4819-0.6969c2.465-0.3832 22.04-6.5967 43.5-13.808 31.872-10.71 40.117-13.128 45.018-13.201 5.5608-0.083 6.0243 0.081 6.3314 2.2505 0.20326 1.4355-1.0535 4.4265-3.25 7.7346-4.0886 6.1579-4.4179 8.0245-1.5747 8.9269 3.7469 1.1892 13.435-1.6753 43.993-13.008 16.775-6.2209 44.812-16.336 62.304-22.479 17.492-6.1425 41.792-15.217 54-20.166 41.059-16.644 67.928-26.94 92.553-35.464 42.44-14.691 59.767-21.199 91.642-34.42 17.05-7.0716 37.3-15.176 45-18.011 21.041-7.7447 92.146-32.518 99-34.492 9.9276-2.8593 38.103-13.314 52.723-19.563 18.266-7.8075 90.788-42.743 123.28-59.385 14.3-7.3249 56.15-27.358 93-44.519 78.617-36.611 89.672-41.992 127.5-62.068 37.506-19.905 61.615-31.934 83-41.413 9.625-4.2662 28.075-12.823 41-19.015s30.25-13.975 38.5-17.294c14.229-5.725 21.688-8.2863 48.542-16.667 12.178-3.8005 35.958-14.705 35.958-16.489 0-0.57827-1.8-1.0514-4-1.0514-2.532 0-4-0.45846-4-1.2492 0-0.68707 3.7211-4.8496 8.269-9.25 6.0715-5.8745 10.922-9.4354 18.25-13.399 21.749-11.763 40.809-22.778 45.279-26.167 4.0722-3.0878 4.6607-3.9848 4.3947-6.6988-0.2682-2.7365 0.3021-3.5778 4.5-6.6384 2.6439-1.9276 12.457-7.8814 21.807-13.231 28.055-16.05 38.612-23.269 53.706-36.72 9.6049-8.5596 9.5812-8.9947-0.4473-8.2138l-8.2589 0.64308 4-3.6365c10.626-9.6609 31.125-20.996 61.133-33.805 17.283-7.3773 32.363-12.443 49.495-16.626 22.071-5.3896 33.175-5.9357 39.723-1.9538 2.9767 1.8103 2.9845 1.8398 2.7754 10.524l-0.2096 8.7083-5.6448 5.2542c-21.781 20.274-70.417 53.628-124.27 85.224-92.86 54.481-177.02 99.946-259.5 140.19-20.075 9.7946-55.85 27.255-79.5 38.802-23.65 11.546-56.5 27.308-73 35.025s-38.325 17.949-48.5 22.736c-10.175 4.7869-31.55 14.553-47.5 21.703-15.95 7.1495-44.3 19.884-63 28.3-28.448 12.802-126.44 54.668-168.5 71.986-6.325 2.6046-25.826 10.773-43.335 18.153s-47.659 19.883-67 27.785c-19.341 7.902-48.89 20.076-65.665 27.052-31.953 13.29-112.98 45.866-143.13 57.548-15.537 6.0193-52.332 19.63-164.87 60.988-70 25.725-137.45 48.224-170.5 56.872-12.65 3.3102-30.33 8.2839-39.289 11.053-8.9589 2.7689-21.257 5.929-27.329 7.0223-14.086 2.5364-15.49 2.915-39 10.518-10.79 3.4896-24.965 7.5343-31.5 8.9884-18.966 4.22-25.472 5.9912-53.462 14.555-48.227 14.756-65.396 17.946-96.611 17.955-14.264 0-19.397-0.3155-19.992-1.2446zm135.68-112.19c22.414-10.592 30-14.815 30-16.7 0-0.7359-1.5646-0.9412-4.5815-0.6011-8.0202 0.904-40.597 18.226-48.838 25.969-2.9855 2.805-3.0035 2.873-0.58099 2.1938 1.375-0.3855 12.175-5.2729 24-10.861zm293.54-1.1522c25.792-7.4708 89.526-32.021 103.96-40.044 17.7-9.8406 20.593-13.08 10.75-12.038-11.023 1.1667-23.495 6.316-76.75 31.689-18.15 8.6473-36.375 17.187-40.5 18.978-11.499 4.9906-10.917 5.3145 2.5432 1.4158zm187.57-68.319c20.251-6.918 35.137-12.54 66.277-25.032 46.24-18.55 58.312-23.921 53.962-24.01-3.4366-0.071-13.782 3.4176-46.237 15.591-16.749 6.2821-35.7 12.71-42.115 14.284-6.5034 1.5958-15.388 4.6562-20.083 6.9176-8.4497 4.0699-29.237 17.164-27.249 17.164 0.58371 0 7.5339-2.2111 15.445-4.9135zm-222.05-76.966c27.345-9.3328 52.267-20.913 60.033-27.896 4.8651-4.3741 10.64-12.198 12.25-16.596 0.3769-1.0296-2.0425 0.6535-5.3765 3.7401-4.8637 4.503-9.6595 7.3583-24.265 14.447-16.604 8.0583-49.857 26.089-52.154 28.279-1.5962 1.5221 0.61216 1.0638 9.5124-1.9739zm623.44-86.09c23.362-8.9301 52.807-21.314 78.5-33.014 25.919-11.803 75.057-35.293 74.659-35.69-0.7099-0.7099-29.138 8.2704-42.786 13.516-27.62 10.616-91.442 38.415-112.97 49.208-16.302 8.1718-20.586 10.909-18.802 12.011 1.9153 1.1837 4.2479 0.5264 21.401-6.0305zm454-211.08c20.794-10.349 41.97-21.993 44.382-24.405 3.5717-3.5717-17.396 3.9342-37.56 13.446-13.925 6.5683-25.701 13.833-32.322 19.939l-5.5 5.0722 5.5-2.049c3.025-1.127 14.5-6.5281 25.5-12.003zm-158.74-95.419c3.388-1.844 5.2376-3.5008 5.2376-4.6917 0-2.2147-0.8797-2.2522-8-0.34107-11.923 3.2004-26.923 1.253-46.759-6.0704-5.3576-1.978-28.013-12.559-50.345-23.513-52.329-25.668-54.34-26.151-12.896-3.0973 42.028 23.379 69.379 36.101 85.5 39.77 3.3 0.75109 9.6056 1.237 14.012 1.0798 6.5821-0.23483 8.9473-0.79471 13.25-3.1365zm-139.24-44.492c-1.3003-2.104-17.702-12.167-29.025-17.808-15.223-7.5838-31.245-13.497-27.95-10.316 2.4715 2.3862 54.961 29.042 57.259 29.078 0.17 3e-3 0.042-0.42664-0.2836-0.95401zm298.06-7.5322c10.245-2.8082 28.678-9.4705 33.034-11.94l2.8838-1.6347-3.5 0.62517c-4.1083 0.73383-41.429 13.003-43.847 14.415-3.0802 1.7982 1.8116 1.171 11.43-1.4655zm263.42-8.5515c9.5539-2.6754 13.927-5.2148 36.248-21.051 25.262-17.923 28.752-20.657 28.752-22.535 0-1.4098-0.9734-1.57-6.9442-1.1428-8.6275 0.61729-16.011 3.9848-36.074 16.453-7.9649 4.9497-20.244 12.322-27.288 16.383-14.948 8.6189-19.387 12.005-18.219 13.895 1.1216 1.8149 13.724 0.74235 23.525-2.0022zm-803 683.42c-44.044-2.619-101.37-16.343-149-35.671-35.418-14.373-59.367-26.888-112-58.529-37.414-22.492-61.73-35.814-69.759-38.22-2.3327-0.6989-4.2412-1.5497-4.2412-1.8908s5.6545-3.0287 12.566-5.9724c10.485-4.466 12.949-5.1777 14.879-4.2982 1.2723 0.5797 15.305 9.119 31.184 18.976 34.463 21.394 43.267 26.514 51.019 29.673 3.2188 1.3116 17.309 8.0488 31.311 14.972 23.689 11.712 28.934 14.023 26.492 11.673-0.5225-0.5028-9.6283-5.9196-20.235-12.037-30.306-17.479-50.462-30.683-74.531-48.823-13.12-9.8881-27.684-22.062-27.684-23.141 0-0.4792 2.9557-2.0546 6.5681-3.5007l6.5681-2.6294 5.6819 5.0617c3.125 2.784 10.921 9.6569 17.324 15.273 6.4031 5.6162 11.245 10.46 10.76 10.764-1.1832 0.7416 13.808 12.087 34.598 26.184 43.377 29.412 76.28 45.491 120.28 58.782 17.154 5.1811 22.942 7.5753 15.718 6.5016-3.0716-0.4566-3.6518-0.3364-2.5 0.5179 2.5638 1.9016-9.369 0.2138-25.613-3.6227-8.188-1.9338-16.515-3.6828-18.503-3.8867-4.4219-0.4531-17.205-4.6888-34.999-11.597-7.3614-2.8579-16.75-6.3054-20.864-7.6613-11.972-3.946-64.21-30.81-93.02-47.838-25.54-15.095-40.833-23.433-42.978-23.433-2.5574 0-0.15256 2.0935 11.728 10.21 7.0123 4.7905 14.618 10.416 16.901 12.5 10.194 9.3075 61.16 39.188 96.849 56.781 49.877 24.587 90.154 37.906 137.5 45.469 28.841 4.607 65.065 6.6725 87 4.9609 15.712-1.2261 37.466-4.7363 51.677-8.3386 33.662-8.5327 69.42-26.955 100.57-51.812 13.425-10.713 39.065-36.411 50.157-50.27 9.7139-12.137 28.429-39.928 36.447-54.122 11.916-21.093 24.297-48.959 34.158-76.878 10.249-29.016 21.557-69.831 20.637-74.484-0.2737-1.3837 0.1191-7.0158 0.8729-12.516 0.7539-5.5 2.3398-17.2 3.5243-26s2.3976-17.125 2.696-18.5c0.2983-1.375 0.2531-2.2366-0.1004-1.9146s-3.8198 12.922-7.703 28c-11.428 44.375-19.712 71.496-23.951 78.415-1.0109 1.65-4.8067 10.129-8.435 18.843-6.1573 14.787-10.402 23.915-10.505 22.589-0.024-0.3127 0.6614-2.9446 1.5238-5.8486 1.7015-5.7296 1.494-7.4357-0.4603-3.7842-1.157 2.1619-4.9454 5.2179-5.604 4.5206-0.1659-0.1756 1.47-6.3943 3.6353-13.819 6.4634-22.164 10.861-41.058 10.861-46.665 0-2.8984 1.1508-12.302 2.5573-20.897 1.4065-8.5949 2.419-16.767 2.25-18.161-0.1742-1.4365-2.2013 4.5591-4.6808 13.845-2.4055 9.008-5.3727 18.853-6.5937 21.878-1.2211 3.025-4.8233 13.055-8.0049 22.288-3.1815 9.2335-5.935 16.638-6.1187 16.454-0.1837-0.1837 1.0137-4.8134 2.6609-10.288 10.753-35.738 18.171-77.859 19.453-110.45l0.4916-12.5-2.3495 13.057c-2.4596 13.668-4.6571 20.166-4.5467 13.443 0.032-1.925 0.5804-10.206 1.2196-18.403l1.1621-14.903 11.395-4.8683c6.2672-2.6776 11.588-4.6749 11.825-4.4386s-0.5209 12.882-1.6828 28.102c-1.8084 23.688-3.0226 35.715-5.5039 54.512-0.4422 3.3506-0.3594 3.2866 1.9412-1.5 1.3217-2.75 2.4308-4.1859 2.4645-3.191 0.034 0.995 0.473 1.5547 0.976 1.2438s1.1066 0 1.3412 0.691c0.6543 1.9267 6.0529-21.369 13.099-56.522 3.5031-17.478 6.544-31.898 6.7574-32.045 0.2135-0.14632 6.389-2.8081 13.724-5.9152 9.7976-4.1504 13.141-5.1998 12.601-3.9554-6.8702 15.845-10.689 29.452-20.962 74.694-8.5326 37.576-12.356 52.78-19.109 76-21.57 74.159-56.241 139.43-98.058 184.59-28.158 30.413-54.868 50.789-87.807 66.987-27.093 13.323-52.218 21.142-81.939 25.497-9.9314 1.4555-44.933 2.5487-57.561 1.7978zm-37-65.378c-18.928-1.2171-41.846-5.6917-65-12.691-12.055-3.6439-12.153-3.6505-5.5-0.3659 3.3 1.6293 5.3835 2.9845 4.63 3.0116-1.6266 0.058-45.75-14.459-51.88-17.07-8.4048-3.5793-3.9908-0.7639 9.5 6.0596 14.11 7.1365 16.17 8.5755 7.24 5.0555-25.548-10.07-59.869-29.177-88.99-49.541-12.86-8.9933-42.263-31.526-41.774-32.014 0.15085-0.1506 2.612-1.1952 5.4693-2.3213l5.195-2.0474 7.805 6.2906c27.838 22.437 53.227 38.623 87.305 55.659 33.839 16.917 59.833 25.333 101 32.703 14.852 2.6588 16.858 2.7746 48 2.7713 39.427 0 53.408-1.7752 84-10.642 52.365-15.176 99.631-48.327 139.52-97.855 39.856-49.485 68.595-129.02 77.025-213.16 0.5373-5.3631 1.0356-6.7576 2.557-7.1555 1.6572-0.43337 1.8298-0.0444 1.4027 3.1614-0.2679 2.0105-1.1994 9.9555-2.0701 17.656-2.2897 20.249-5.8234 38.441-11.558 59.5-24.079 88.432-58.178 147.1-109.54 188.47-42.685 34.379-94.839 57.118-144.34 62.929-16.024 1.8814-44 2.6261-60 1.5972zm-399.87-129.87c1.5785-2.4891 4.6549-9.0906 6.8363-14.67 6.935-17.738 11.482-38.035 23.514-104.96 9.7943-54.478 17.017-84.056 29.545-121 19.54-57.621 43.901-107.13 67.79-137.76 4.8698-6.2449 6.3299-6.8836 3.6173-1.5822l-1.7105 3.3429 2.1368-1.905c1.1752-1.0477 2.1368-1.5448 2.1368-1.1046s-2.8668 5.7974-6.3706 11.905c-8.2419 14.367-16.431 30.725-17.027 34.015-0.25826 1.4242-2.5881 7.202-5.1774 12.839-8.6564 18.847-15.551 37.114-19.909 52.75-2.3763 8.525-6.3473 22.475-8.8246 31-10.082 34.694-18.329 83.596-28.246 167.48-2.9896 25.287-5.7141 48.076-6.0545 50.642l-0.61899 4.6661-44.507 18.87zm30.358-25.378c2.5615-8.5687 6.0856-29.092 11.992-69.841 6.4862-44.746 9.0973-60.719 14.595-89.277 2.2094-11.478 3.81-21.076 3.5568-21.329-0.25318-0.25317-1.7273 3.4302-3.2758 8.1852-1.5486 4.755-2.9578 8.2188-3.1316 7.6972-0.88141-2.6442 9.1102-40.264 17.393-65.486 6.9937-21.297 6.7912-20.605 5.3967-18.434-3.4215 5.327-14.237 38.565-20.414 62.736-7.3973 28.946-17.437 82.641-24.681 132-2.4859 16.939-3.2123 25.477-3.4242 40.25-0.14792 10.312-0.11311 18.75 0.0774 18.75 0.19046 0 1.0525-2.3625 1.9157-5.25z" fill="#7c55c0"/>
  <path d="m1053.5 1388.3c-51.734-1.4986-103.75-12.486-154-32.53-18.729-7.4705-59.905-27.705-80.835-39.724-23.366-13.417-51.275-31.037-56.014-35.364-2.2831-2.0845-9.8885-7.7095-16.901-12.5-11.881-8.1164-14.286-10.21-11.728-10.21 2.1445 0 17.437 8.3382 42.978 23.433 28.81 17.027 81.048 43.892 93.02 47.838 4.1138 1.3559 13.503 4.8034 20.864 7.6613 17.794 6.9079 30.578 11.144 34.999 11.597 1.9889 0.2039 10.315 1.9529 18.503 3.8867 16.244 3.8365 28.176 5.5243 25.613 3.6227-1.1518-0.8543-0.5716-0.9745 2.5-0.5179 7.2242 1.0737 1.4361-1.3205-15.718-6.5016-44.002-13.29-76.905-29.37-120.28-58.782-22.211-15.06-35.777-25.448-34.37-26.317 0.75934-0.4693 0.63828-0.9603-0.38294-1.5531-2.6108-1.5155-32.747-28.586-32.747-29.416 0-0.4375 1.5984-1.323 3.552-1.9678 3.4008-1.1223 3.7734-0.9964 8.75 2.9572 41.433 32.916 80.494 57.422 116.7 73.214 16.194 7.0637 16.898 6.6064 1.75-1.1381-13.56-6.9327-17.794-9.6673-9.5-6.1349 6.1296 2.6105 50.253 17.128 51.88 17.07 0.75348-0.027-1.33-1.3823-4.63-3.0116-6.6526-3.2846-6.5546-3.278 5.5 0.3659 36.471 11.025 66.556 14.719 103.7 12.734 10.34-0.5526 23.3-1.6928 28.8-2.5336 47.194-7.2147 96.556-29.593 136.84-62.035 51.364-41.369 85.447-100.01 109.55-188.47 5.9362-21.791 9.4226-40.126 12.068-63.467 1.5347-13.54 2.2776-17.226 3.6781-18.25 3.9257-2.8706 3.9722-2.1546 1.798 27.717-0.8279 11.374 1.3776 6.4623 4.2397-9.443l2.3495-13.057-0.4916 12.5c-1.2821 32.595-8.7002 74.716-19.453 110.45-1.6472 5.4749-2.8446 10.105-2.6609 10.288 0.1837 0.1838 2.9372-7.2207 6.1187-16.454 3.1816-9.2336 6.7838-19.263 8.0049-22.288 1.221-3.025 4.1882-12.87 6.5937-21.878 2.4795-9.2855 4.5066-15.281 4.6808-13.845 0.169 1.3936-0.8435 9.5661-2.25 18.161-1.4065 8.595-2.5573 17.999-2.5573 20.897 0 5.6065-4.3976 24.501-10.861 46.665-2.1653 7.425-3.8012 13.644-3.6353 13.819 0.6586 0.6973 4.447-2.3587 5.604-4.5206 1.9543-3.6515 2.1618-1.9454 0.4603 3.7842-0.8624 2.904-1.5481 5.5359-1.5238 5.8486 0.1031 1.3259 4.348-7.8016 10.505-22.589 3.6283-8.7135 7.4241-17.193 8.435-18.843 4.2392-6.919 12.523-34.04 23.951-78.415 3.8832-15.078 7.3495-27.678 7.703-28s0.3987 0.5396 0.1004 1.9146c-0.2984 1.375-1.5115 9.7-2.696 18.5s-2.7704 20.5-3.5243 26c-0.7538 5.5-1.1466 11.132-0.8729 12.516 0.9207 4.6529-10.388 45.468-20.637 74.484-9.8615 27.919-22.243 55.785-34.158 76.878-8.0183 14.194-26.733 41.985-36.447 54.122-11.092 13.859-36.732 39.556-50.157 50.27-32.159 25.663-68.986 44.323-103.75 52.567-20.285 4.8113-53.524 9.0773-65.895 8.4576-2.2576-0.1131-8.1548-0.323-13.105-0.4664zm-828.92-71.103c8.2404-7.7424 40.817-25.065 48.838-25.969 5.8527-0.6597 5.9646 0.8362 0.33151 4.4301-4.7579 3.0355-45.856 22.641-49.75 23.732-2.4225 0.6792-2.4045 0.6112 0.58099-2.1938zm306.5-7.6025c0.22917-0.2076 3.7917-1.8423 7.9167-3.6326s22.35-10.33 40.5-18.978c38.174-18.187 53.934-25.255 63.888-28.653 8.2252-2.8073 18.612-4.232 18.612-2.5529 0 3.6039-22.259 15.451-48 25.549-40.258 15.791-86.575 31.581-82.917 28.267zm-201.08-52.875c2.5748-2.9392 40.714-25.987 58.431-35.309 26.304-13.841 66.18-29.428 75.307-29.435 3.7999 0 4.2136 0.2293 4 2.2466-0.21114 1.9943 0.15771 2.2175 3.2463 1.9644 5.9263-0.4857 28.379-10.055 54.516-23.233 13.75-6.933 30.165-14.82 36.477-17.526s13.287-6.3833 15.5-8.1715 5.6747-4.3666 7.6933-5.7298c4.7984-3.2404 8.0818-7.6502 12.826-17.226 3.4811-7.0266 13.47-35.863 19.098-55.132 1.1732-4.0167 2.3188-7.1174 2.5458-6.8904 0.55385 0.5538-3.9604 21.92-8.2558 39.075-4.205 16.794-8.3088 29.822-13.543 42.994-2.1583 5.4312-3.7366 10.062-3.5074 10.292 0.79075 0.7908 7.8578-10.801 11.84-19.42 2.1961-4.7533 4.8262-9.7019 5.8447-10.997 4.0032-5.0892 9.6702-25.77 21.911-79.959 3.8773-17.165 9.5452-41.465 12.595-54 4.6587-19.146 11.689-54.338 11.39-57.019-0.0473-0.42433-1.6048 2.3785-3.4612 6.2285s-3.3927 6.4835-3.4141 5.8522c-0.091-2.6929 12.773-38.255 19.653-54.331 13.193-30.827 27.362-57.479 47.801-89.918 5.7786-9.1711 10.507-17.563 10.507-18.649 0-1.0861 2.0526-5.0345 4.5614-8.7742 2.5088-3.7397 5.8604-9.0025 7.448-11.695 1.5876-2.6927 3.6899-6.1216 4.6716-7.62 2.7552-4.205-9e-3 -2.2579-10.838 7.636l-9.304 8.5 6.1698-8c3.3934-4.4 9.835-12.275 14.315-17.5 14.52-16.935 16.113-19.313 9.4766-14.136-1.1 0.85808 1.375-1.9467 5.5-6.2329 9.065-9.4192 21.462-20.205 37.332-32.48 6.5076-5.0334 11.599-9.1516 11.315-9.1516-0.28424 0-1.7836 0.45189-3.3319 1.0042-2.3618 0.84249-2.0502 0.34265 1.9349-3.1041 2.6125-2.2595 4.75-4.7133 4.75-5.4528 0-1.8518 13.898-10.326 29.5-17.987 20.74-10.185 62.549-23.153 92-28.537 10.101-1.8466 16.807-2.2671 42.378-2.6575 55.46-0.84672 94.864 2.9206 134.62 12.871 13.16 3.2935 39.917 11.78 39.248 12.449-0.2309 0.23094-8.8836-1.4042-19.228-3.6338-10.344-2.2295-21.781-4.3294-25.414-4.6663-5.808-0.53872-6.456-0.43085-5.3646 0.89308 0.6828 0.8282 1.0161 1.7311 0.7408 2.0064s3.5473 1.7154 8.4946 3.2001c5.0433 1.5135 8.8916 3.1992 8.7593 3.8369-0.1298 0.62556 5.614 3.3204 12.764 5.9886 16.644 6.2109 40.487 17.169 38.282 17.593-0.9319 0.17945-12.626-2.3819-25.988-5.6918-23.693-5.8692-45.726-10.513-46.45-9.7891-0.198 0.19803 5.1561 1.8204 11.898 3.6053 44.943 11.898 106.81 38.69 156.76 67.883 16.002 9.3526 31.274 19.249 30.658 19.865-0.2182 0.21825-4.0159-1.1944-8.4393-3.1393-4.4235-1.9449-8.7101-3.5361-9.5259-3.5361s-8.8429-3.6485-17.838-8.1078c-35.316-17.508-100.13-42.731-107.14-41.698-1.9059 0.28067-1.7989 0.5801 1.319 3.69 2.4629 2.4567 2.8554 3.2229 1.4317 2.7952-5.2882-1.5887-11.588-2.8868-12.002-2.4729-0.2549 0.25492 5.2748 2.8612 12.288 5.7917 17.886 7.4735 32.563 14.558 35.908 17.331 1.5643 1.2973 10.044 6.3195 18.844 11.161 22.481 12.367 38.222 21.937 58.74 35.711 15.606 10.476 44.668 31.732 51.76 37.858l2.5 2.159-3.0294-1.8586c-1.6662-1.0222-9.7729-6.4075-18.015-11.967-19.426-13.104-26.709-17.264-25.81-14.74 1.1384 3.196 3.4325 5.2614 19.92 17.935 18.963 14.576 23.314 18.871 11.3 11.154-12.359-7.9384-14.113-8.554-7.8657-2.7618 4.3159 4.0018 0.6558 1.8845-17-9.8342-29.312-19.455-45.634-28.946-72.5-42.158-27.403-13.475-44.688-20.311-70.811-28.003-46.756-13.767-81.798-19.46-119.19-19.364-48.565 0.12422-85.008 9.3847-133.5 33.923-32.107 16.247-58.435 34.914-87.365 61.942-8.5166 7.9568-15.657 13.951-15.867 13.32-0.51343-1.5403-6.7836 4.2353-14.716 13.556-6.4459 7.5735-8.2102 8.8714-6.0837 4.4756 2.489-5.1452-5.4826 5.166-14.43 18.664-31.793 47.967-51.59 101.54-68.547 185.5-6.1607 30.503-10.069 57.734-13.92 97-1.6456 16.775-3.1627 32.075-3.3713 34-0.20863 1.925-0.49742-4.6-0.64173-14.5-0.29664-20.348-0.98963-19.57-3.5619 4-0.90035 8.25-1.8245 15.956-2.0537 17.123-0.38592 1.9667-5.89 5.262-6.9757 4.1763-0.45895-0.4589 2.9512-30.253 10.085-88.116 3.3133-26.872 5.5786-41.571 13.43-87.144 3.3238-19.292 6.9252-34.52 12.561-53.113 1.9481-6.427 5.137-17.59 7.0863-24.806 3.7494-13.88 11.171-33.563 19.482-51.671 2.7597-6.0127 5.2297-12.101 5.4888-13.53 0.59798-3.2977 8.779-19.643 17.029-34.024 3.5038-6.1075 6.3706-11.465 6.3706-11.905s-0.96156 0.0569-2.1368 1.1046l-2.1368 1.905 1.7105-3.3429c2.7126-5.3013 1.2525-4.6627-3.6173 1.5822-23.889 30.635-48.25 80.14-67.79 137.76-12.528 36.944-19.751 66.522-29.545 121-12.032 66.923-16.579 87.221-23.514 104.96-2.1814 5.5795-5.2494 12.168-6.8178 14.641l-2.8515 4.4963-39.9 16.854c-24.251 10.244-42.45 17.348-46.4 18.114-3.575 0.6929-10.072 2.1998-14.438 3.3485-8.4463 2.2223-12.562 2.6264-12.562 1.2335 0-1.568 11.34-8.8181 26-16.622 24.498-13.042 21.467-12.786-15 1.2632-27.546 10.612-41.893 14.346-47.27 12.301-1.5014-0.5709-2.7298-1.7382-2.7298-2.594 0-2.8503-2.7498-2.6826-17.962 1.0956-16.217 4.0279-19.032 3.8866-15.691-0.7877 6.2576-8.7561 8.6526-12.364 8.6526-13.033 0-1.8641-6.5713-0.3307-24.729 5.7707-27.072 9.0965-44.735 15.757-58.771 22.162-13.366 6.0989-15.224 6.874-14.5 6.047zm392.56-19.302c14.016-9.2371 24.919-14.208 38.448-17.527 6.4148-1.5741 25.367-8.0018 42.115-14.284 32.454-12.173 42.8-15.662 46.237-15.591 4.3497 0.09-7.7216 5.4607-53.962 24.01-37.16 14.907-78.201 29.946-81.722 29.946-0.5837 0 3.4139-2.9493 8.8836-6.554zm-225.01-73.352c2.2963-2.1896 35.55-20.221 52.154-28.279 14.606-7.0888 19.402-9.9441 24.265-14.447 3.334-3.0866 5.7534-4.7697 5.3765-3.7401-1.61 4.3981-7.3853 12.222-12.25 16.596-7.766 6.9824-32.688 18.563-60.033 27.896-8.9002 3.0377-11.109 3.496-9.5124 1.9739zm611.55-82.033c-1.7841-1.1026 2.4999-3.8394 18.802-12.011 21.531-10.793 85.353-38.592 112.97-49.208 13.648-5.2457 42.076-14.226 42.786-13.516 0.3972 0.3972-48.74 23.887-74.659 35.69-25.693 11.701-55.138 24.084-78.5 33.014-17.153 6.5569-19.486 7.2142-21.401 6.0305zm449.9-208.13c6.6209-6.1059 18.397-13.37 32.322-19.939 20.164-9.5115 41.132-17.017 37.56-13.446-3.9087 3.9087-57.269 31.709-69.882 36.408l-5.5 2.049zm-160.5-102.34c-16.121-3.6692-43.472-16.392-85.5-39.77-41.443-23.054-39.433-22.571 12.896 3.0973 22.332 10.954 44.987 21.535 50.345 23.513 19.836 7.3235 34.836 9.2708 46.759 6.0704 7.1203-1.9112 8-1.8737 8 0.34107 0 1.1909-1.8496 2.8478-5.2376 4.6917-4.3027 2.3418-6.6679 2.9017-13.25 3.1365-4.4068 0.15722-10.712-0.32866-14.012-1.0798zm174.65-52.615c2.4181-1.4117 39.739-13.681 43.847-14.415l3.5-0.62517-2.8838 1.6347c-7.2294 4.0979-39.022 14.475-44.116 14.399-1.7624-0.0262-1.8037-0.14431-0.3474-0.99446zm251.32-8.0148c-1.1686-1.8907 3.2707-5.2766 18.219-13.895 7.0434-4.0612 19.323-11.434 27.288-16.383 20.063-12.468 27.447-15.835 36.074-16.453 5.9708-0.42721 6.9442-0.26702 6.9442 1.1428 0 1.878-3.4892 4.6128-28.752 22.535-22.322 15.836-26.694 18.376-36.248 21.051-9.8009 2.7445-22.403 3.8171-23.525 2.0022z" fill="#4222b4"/>
 </g>
</svg>
